<svg id="Capa_1" data-name="Capa 1" xmlns="http://www.w3.org/2000/svg" viewBox="0 0 543 273"><defs><style>.cls-1{fill:#ffd071;}.cls-2,.cls-3,.cls-4,.cls-7,.cls-9{fill:none;}.cls-2,.cls-3,.cls-4,.cls-7{stroke:#f00028;}.cls-2,.cls-3,.cls-4,.cls-5,.cls-7,.cls-9{stroke-miterlimit:10;}.cls-2,.cls-3,.cls-4{stroke-width:3px;}.cls-3{stroke-dasharray:11.73 11.73;}.cls-4{stroke-dasharray:12.29 12.29;}.cls-5{fill:#fcff65;stroke:gray;}.cls-6{fill:#94ff79;}.cls-7,.cls-9{stroke-width:2px;}.cls-7{stroke-dasharray:10;}.cls-8{fill:#95f7ff;}.cls-9{stroke:#0071bc;}.cls-10{font-size:20px;font-family:Consolas;}</style></defs><rect class="cls-1" x="1.5" y="1.5" width="540" height="270"/><polyline class="cls-2" points="541.5 265.5 541.5 271.5 535.5 271.5"/><line class="cls-3" x1="523.77" y1="271.5" x2="13.37" y2="271.5"/><polyline class="cls-2" points="7.5 271.5 1.5 271.5 1.5 265.5"/><line class="cls-4" x1="1.5" y1="253.21" x2="1.5" y2="13.64"/><polyline class="cls-2" points="1.5 7.5 1.5 1.5 7.5 1.5"/><line class="cls-3" x1="19.23" y1="1.5" x2="529.63" y2="1.5"/><polyline class="cls-2" points="535.5 1.5 541.5 1.5 541.5 7.5"/><line class="cls-4" x1="541.5" y1="19.79" x2="541.5" y2="259.36"/><rect class="cls-5" x="38.5" y="37.5" width="466" height="200"/><rect class="cls-6" x="71.5" y="73.5" width="400" height="127"/><rect class="cls-7" x="71.5" y="73.5" width="400" height="127"/><rect class="cls-8" x="105.5" y="109.5" width="332" height="57"/><rect class="cls-9" x="105.5" y="109.5" width="332" height="57"/><text class="cls-10" transform="translate(232.72 142.96)">Content</text><text class="cls-10" transform="translate(243.03 64.09)">Border</text><text class="cls-10" transform="translate(236.79 100.21)">Padding</text><text class="cls-10" transform="translate(241.74 27.97)">Margin</text></svg>