<svg id="Capa_1" data-name="Capa 1" xmlns="http://www.w3.org/2000/svg" viewBox="0 0 420.25 253.25"><defs><style>.cls-1{fill:#fff;}.cls-2,.cls-7{fill:none;stroke-miterlimit:10;stroke-width:0.25px;}.cls-2{stroke:#999;}.cls-3{fill:#9e54d6;}.cls-4{fill:aqua;}.cls-5{fill:#3fa9f5;}.cls-6{fill:#10d7ff;}.cls-7{stroke:gray;stroke-linecap:square;}</style></defs><rect class="cls-1" x="0.13" y="0.13" width="420" height="252.87"/><rect class="cls-2" x="0.13" y="0.13" width="420" height="252.87"/><rect class="cls-3" x="0.12" y="0.13" width="420" height="37.9"/><rect class="cls-4" x="315.12" y="41.02" width="104.8" height="173.62"/><rect class="cls-5" x="0.12" y="219.52" width="420" height="33.61"/><rect class="cls-6" x="0.12" y="42.02" width="105" height="16.92"/><rect class="cls-6" x="0.12" y="60.82" width="105" height="16.92"/><rect class="cls-6" x="0.12" y="79.62" width="105" height="16.92"/><rect class="cls-6" x="0.12" y="98.42" width="105" height="16.92"/><line class="cls-7" x1="35.12" y1="0.13" x2="35.12" y2="253.13"/><line class="cls-7" x1="70.12" y1="0.13" x2="70.12" y2="253.13"/><line class="cls-7" x1="105.12" y1="0.13" x2="105.12" y2="253.13"/><line class="cls-7" x1="140.12" y1="0.13" x2="140.12" y2="253.13"/><line class="cls-7" x1="175.12" y1="0.13" x2="175.12" y2="253.13"/><line class="cls-7" x1="210.12" y1="0.13" x2="210.12" y2="253.13"/><line class="cls-7" x1="245.12" y1="0.13" x2="245.12" y2="253.13"/><line class="cls-7" x1="280.12" y1="0.13" x2="280.12" y2="253.13"/><line class="cls-7" x1="315.12" y1="0.13" x2="315.12" y2="253.13"/><line class="cls-7" x1="350.12" y1="0.13" x2="350.12" y2="253.13"/><line class="cls-7" x1="385.12" y1="0.13" x2="385.12" y2="253.13"/></svg>