<svg id="Capa_1" data-name="Capa 1" xmlns="http://www.w3.org/2000/svg" viewBox="0 0 532.25 190.6"><defs><style>.cls-1{fill:#fff;}.cls-2{fill:none;stroke:#000;stroke-miterlimit:10;stroke-width:0.25px;}.cls-3{fill:#9e54d6;}.cls-4{fill:aqua;}.cls-5{fill:#3fa9f5;}.cls-6{fill:#10d7ff;}.cls-7{fill:lime;}</style></defs><rect class="cls-1" x="0.13" y="0.27" width="270" height="169"/><rect class="cls-2" x="0.13" y="0.27" width="270" height="169"/><rect class="cls-3" x="1.03" y="1.27" width="268.2" height="25"/><rect class="cls-4" x="215.13" y="28.27" width="52.3" height="116.03"/><rect class="cls-5" x="1.03" y="146.23" width="268.2" height="22.09"/><rect class="cls-6" x="3.12" y="28.27" width="52" height="11.31"/><rect class="cls-6" x="3.13" y="40.84" width="52" height="11.31"/><rect class="cls-6" x="3.13" y="53.4" width="52" height="11.31"/><rect class="cls-6" x="3.13" y="65.97" width="52" height="11.31"/><rect class="cls-1" x="318.66" y="0.27" width="112.47" height="155"/><rect class="cls-2" x="318.66" y="0.27" width="112.47" height="155"/><rect class="cls-3" x="319.03" y="1.19" width="111.72" height="20.08"/><rect class="cls-4" x="413.25" y="210.4" width="24.64" height="108.51" transform="translate(110.04 548.5) rotate(-90)"/><rect class="cls-5" x="319.13" y="137.27" width="111" height="17.12"/><rect class="cls-6" x="319.9" y="23.27" width="24.22" height="5.87"/><rect class="cls-6" x="319.9" y="29.8" width="24.22" height="5.87"/><rect class="cls-6" x="319.9" y="36.33" width="24.22" height="5.87"/><rect class="cls-6" x="319.9" y="42.85" width="24.22" height="5.87"/><path class="cls-7" d="M158.47,329.18v-9.71h1.63v9.71Zm1.53,0v-1.56h.89a2.63,2.63,0,0,0,2.1-.8,3.47,3.47,0,0,0,.7-2.36,4,4,0,0,0-.7-2.57,2.52,2.52,0,0,0-2.1-.87H160l-.16-1.55h1q4.52,0,4.51,5c0,3.14-1.5,4.72-4.51,4.72Z" transform="translate(-50.88 -141.73)"/><path class="cls-7" d="M170.55,329.31a4,4,0,0,1-2.88-1,3.69,3.69,0,0,1-1-2.8,4.07,4.07,0,0,1,.86-2.76,3.07,3.07,0,0,1,2.44-1,3,3,0,0,1,2.35.91,3.73,3.73,0,0,1,.83,2.61c0,.34,0,.65,0,.94h-5.23V325h3.65a1.78,1.78,0,0,0-.41-1.27,1.67,1.67,0,0,0-2.38.12,2.47,2.47,0,0,0-.45,1.59,2.22,2.22,0,0,0,.64,1.7,2.56,2.56,0,0,0,1.8.58,7.21,7.21,0,0,0,.94-.05c.31,0,.63-.08.94-.14l.18,1.56a10.41,10.41,0,0,1-1.23.16Z" transform="translate(-50.88 -141.73)"/><path class="cls-7" d="M177.53,329.31c-.55,0-1,0-1.44-.05a7.92,7.92,0,0,1-1.1-.15l.2-1.59c.53.08,1,.13,1.37.17s.71.05,1,.05a4.47,4.47,0,0,0,1.42-.16.56.56,0,0,0,.43-.52.45.45,0,0,0-.13-.35.92.92,0,0,0-.41-.2l-2-.58a2.84,2.84,0,0,1-1.28-.66,1.61,1.61,0,0,1-.42-1.19,1.85,1.85,0,0,1,1-1.73,6.12,6.12,0,0,1,3-.56c.33,0,.65,0,1,0s.66.05,1,.1l-.17,1.53-1.05-.07c-.3,0-.56,0-.8,0a6.2,6.2,0,0,0-1.61.15c-.33.11-.5.28-.5.51a.39.39,0,0,0,.15.34,1.42,1.42,0,0,0,.47.19l1.71.47a3.49,3.49,0,0,1,1.51.74,1.7,1.7,0,0,1,.48,1.28,1.84,1.84,0,0,1-.89,1.71A5.38,5.38,0,0,1,177.53,329.31Z" transform="translate(-50.88 -141.73)"/><path class="cls-7" d="M183.22,329.18V318.92h1.69v10.26Zm1.09-2.65V325h.82a3,3,0,0,0,1.4-.29,2.06,2.06,0,0,0,.86-1,6.09,6.09,0,0,0,.46-1.77h1.74a6.24,6.24,0,0,1-1.31,3.46,3.58,3.58,0,0,1-2.81,1.14Zm3.71,2.65-1.89-3.53,1.54-.56,2.38,4.09Z" transform="translate(-50.88 -141.73)"/><path class="cls-7" d="M190.81,323.43v-1.5h6.69v1.5Zm1.77,2.26v-5.95h1.68v5.95Zm3.37,3.62a3.79,3.79,0,0,1-2.58-.72,3,3,0,0,1-.79-2.32v-1.06h1.68v.92a1.59,1.59,0,0,0,.42,1.23,2.09,2.09,0,0,0,1.4.38,5.53,5.53,0,0,0,.69,0c.25,0,.53-.05.84-.1l.17,1.55c-.31.05-.61.1-.9.12A9.24,9.24,0,0,1,196,329.31Z" transform="translate(-50.88 -141.73)"/><path class="cls-7" d="M202.7,329.31a3,3,0,0,1-2.39-1,5,5,0,0,1,0-5.56,3.4,3.4,0,0,1,4.78,0,5,5,0,0,1,0,5.56A3,3,0,0,1,202.7,329.31Zm0-1.57a1.22,1.22,0,0,0,1.08-.57,3.64,3.64,0,0,0,0-3.24,1.23,1.23,0,0,0-1.08-.56,1.25,1.25,0,0,0-1.08.56,3.64,3.64,0,0,0,0,3.24A1.24,1.24,0,0,0,202.7,327.74Z" transform="translate(-50.88 -141.73)"/><path class="cls-7" d="M207.88,332.32V321.93h1.55l.14,1.53v8.86Zm3.67-3a2,2,0,0,1-1.26-.37,1.56,1.56,0,0,1-.58-1.08h-.63l.49-2.2a2.76,2.76,0,0,0,.37,1.6,1.54,1.54,0,0,0,2.34,0,2.82,2.82,0,0,0,.39-1.63,2.94,2.94,0,0,0-.4-1.68,1.32,1.32,0,0,0-1.15-.58,1.37,1.37,0,0,0-1.16.52,2.71,2.71,0,0,0-.39,1.61l-.45-2.22h.55a1.64,1.64,0,0,1,.58-1.08,2.07,2.07,0,0,1,1.3-.37,2.53,2.53,0,0,1,2.13,1,4.62,4.62,0,0,1,.74,2.82,4.48,4.48,0,0,1-.74,2.77A2.57,2.57,0,0,1,211.55,329.31Z" transform="translate(-50.88 -141.73)"/><path class="cls-7" d="M402,305.75v-1.52h7.25v1.52Zm2.81,8.19v-9.71h1.63v9.71Z" transform="translate(-50.88 -141.73)"/><path class="cls-7" d="M412.73,314.08a2.6,2.6,0,0,1-1.78-.56,2,2,0,0,1-.63-1.59,2.14,2.14,0,0,1,.84-1.82,3.91,3.91,0,0,1,2.4-.64,6.91,6.91,0,0,1,1.08.07,4.28,4.28,0,0,1,.89.21l-.3,1.26a4.37,4.37,0,0,0-.83-.12l-.8,0c-1.07,0-1.61.32-1.61.95a.76.76,0,0,0,.28.64,1.39,1.39,0,0,0,.83.22,2.2,2.2,0,0,0,1-.23,1.81,1.81,0,0,0,.64-.58,1.43,1.43,0,0,0,.21-.73v-.59l.33,1.86h-.58l.23-.22a1.91,1.91,0,0,1-.29,1.05,1.66,1.66,0,0,1-.77.63A3.09,3.09,0,0,1,412.73,314.08Zm2.49-.07-.13-2.15-.09-.8v-1.6a1,1,0,0,0-.5-.94,3.27,3.27,0,0,0-1.49-.32l-1.81-.05.14-1.52,1.53,0a4.57,4.57,0,0,1,2.83.77,2.67,2.67,0,0,1,.92,2.19v2.81l1.09.15v1.37Z" transform="translate(-50.88 -141.73)"/><path class="cls-7" d="M419,313.94V303.69h1.69v10.13Zm2,.14c-.34,0-.67,0-1,0l-1-.1.63-1.63a2.24,2.24,0,0,0,.8.2l.86,0a2.39,2.39,0,0,0,1.85-.71,2.82,2.82,0,0,0,.65-2,2,2,0,0,0-.37-1.29,1.31,1.31,0,0,0-1.06-.45c-1.12,0-1.67.59-1.67,1.77l-.43-1.86h.6a1.51,1.51,0,0,1,1.74-1.45,2.77,2.77,0,0,1,2.17.85,3.52,3.52,0,0,1,.76,2.43,4.09,4.09,0,0,1-1.18,3.13A4.69,4.69,0,0,1,421,314.08Z" transform="translate(-50.88 -141.73)"/><path class="cls-7" d="M426.74,305.18v-1.49h2.2v1.49Zm4.58,8.9a2.31,2.31,0,0,1-1.92-.73,3.66,3.66,0,0,1-.58-2.31v-7.35h1.68V311a3,3,0,0,0,.1.81.75.75,0,0,0,.4.47,1.92,1.92,0,0,0,.86.15,5.35,5.35,0,0,0,1.49-.26l.19,1.65a9.15,9.15,0,0,1-1.09.22A10.08,10.08,0,0,1,431.32,314.08Z" transform="translate(-50.88 -141.73)"/><path class="cls-7" d="M439.1,314.08a4,4,0,0,1-2.88-1,3.69,3.69,0,0,1-1-2.8,4.09,4.09,0,0,1,.86-2.76,3.1,3.1,0,0,1,2.44-1,3.05,3.05,0,0,1,2.35.9,3.74,3.74,0,0,1,.83,2.62,9.11,9.11,0,0,1,0,.93h-5.22V309.8h3.65a1.81,1.81,0,0,0-.41-1.27,1.49,1.49,0,0,0-1.15-.45,1.51,1.51,0,0,0-1.24.56,2.52,2.52,0,0,0-.44,1.6,2.19,2.19,0,0,0,.63,1.69,2.58,2.58,0,0,0,1.81.59c.31,0,.63,0,.94,0s.62-.08.94-.14l.17,1.56a10.24,10.24,0,0,1-1.23.15C439.72,314.07,439.39,314.08,439.1,314.08Z" transform="translate(-50.88 -141.73)"/><path class="cls-7" d="M443,308.19v-1.5h6.7v1.5Zm1.77,2.26v-5.94h1.68v5.94Zm3.37,3.63a3.73,3.73,0,0,1-2.58-.73,3,3,0,0,1-.79-2.31V310h1.68v.92a1.53,1.53,0,0,0,.43,1.22,2,2,0,0,0,1.4.38l.69,0,.84-.1.16,1.54c-.3.06-.6.1-.9.13S448.42,314.08,448.09,314.08Z" transform="translate(-50.88 -141.73)"/><rect class="cls-1" x="471.25" y="0.13" width="60.88" height="110.15"/><rect class="cls-2" x="471.25" y="0.13" width="60.88" height="110.15"/><rect class="cls-3" x="471.45" y="1.05" width="60.48" height="13.23"/><rect class="cls-4" x="543.74" y="200.52" width="17.51" height="57" transform="translate(272.61 639.79) rotate(-90)"/><rect class="cls-5" x="472.13" y="97.48" width="59" height="12.17"/><rect class="cls-6" x="472.49" y="15.13" width="58.63" height="5.87"/><rect class="cls-6" x="472.49" y="21.65" width="58.63" height="5.87"/><rect class="cls-6" x="472.49" y="28.18" width="58.63" height="5.87"/><rect class="cls-6" x="472.49" y="34.7" width="58.63" height="5.87"/><path class="cls-7" d="M533.65,266.94v-9.71h1.63v9.71Zm1.46-2.87v-1.52h1.47a2,2,0,0,0,1.5-.52,2,2,0,0,0,.53-1.47,1.69,1.69,0,0,0-.53-1.34,2.17,2.17,0,0,0-1.5-.47h-1.44v-1.52h1.44a4.18,4.18,0,0,1,2.8.84,3,3,0,0,1,1,2.42,3.47,3.47,0,0,1-1,2.65,3.91,3.91,0,0,1-2.8.93Z" transform="translate(-50.88 -141.73)"/><path class="cls-7" d="M541.91,266.94V256.69h1.69v10.25Zm4.35,0v-4.51a1.46,1.46,0,0,0-.3-1,1.05,1.05,0,0,0-.84-.34c-1,0-1.52.65-1.52,2l-.43-2.06h.59a1.63,1.63,0,0,1,.51-1.09,2,2,0,0,1,1.28-.36,2.28,2.28,0,0,1,1.77.69,2.86,2.86,0,0,1,.63,2v4.72Z" transform="translate(-50.88 -141.73)"/><path class="cls-7" d="M553.13,267.08a3,3,0,0,1-2.39-1,5,5,0,0,1,0-5.55,3.42,3.42,0,0,1,4.79,0,5,5,0,0,1,0,5.55A3,3,0,0,1,553.13,267.08Zm0-1.58a1.24,1.24,0,0,0,1.09-.57,3.62,3.62,0,0,0,0-3.23,1.32,1.32,0,0,0-2.17,0,3.62,3.62,0,0,0,0,3.23A1.24,1.24,0,0,0,553.13,265.5Z" transform="translate(-50.88 -141.73)"/><path class="cls-7" d="M558.32,266.94v-7.25h1.51l.17,1.54v5.71Zm4.35,0V262.5a1.5,1.5,0,0,0-.3-1,1,1,0,0,0-.85-.36c-1,0-1.52.67-1.52,2l-.42-2.13h.59a1.55,1.55,0,0,1,.51-1.09,1.92,1.92,0,0,1,1.27-.36,2.28,2.28,0,0,1,1.78.69,2.86,2.86,0,0,1,.63,2v4.72Z" transform="translate(-50.88 -141.73)"/><path class="cls-7" d="M570.2,267.08a4,4,0,0,1-2.88-1,3.69,3.69,0,0,1-1-2.8,4.09,4.09,0,0,1,.86-2.76,3.1,3.1,0,0,1,2.44-1,3,3,0,0,1,2.35.9,3.74,3.74,0,0,1,.83,2.62,9.11,9.11,0,0,1,0,.93h-5.22V262.8h3.65a1.81,1.81,0,0,0-.41-1.27,1.48,1.48,0,0,0-1.14-.45,1.51,1.51,0,0,0-1.25.56,2.52,2.52,0,0,0-.44,1.6,2.19,2.19,0,0,0,.63,1.69,2.59,2.59,0,0,0,1.81.59c.32,0,.63,0,.94,0s.62-.08.94-.14l.17,1.56a10.24,10.24,0,0,1-1.23.15C570.82,267.07,570.49,267.08,570.2,267.08Z" transform="translate(-50.88 -141.73)"/></svg>