<svg xmlns="http://www.w3.org/2000/svg" viewBox="0 0 302.09 371.91"><defs><style>.cls-1{fill:#fff;}.cls-2{fill:#e6e6e6;}.cls-3,.cls-4{fill:none;}.cls-3,.cls-4,.cls-5{stroke:#000;}.cls-3{stroke-linecap:round;stroke-linejoin:round;stroke-width:0.5px;}.cls-4{stroke-miterlimit:10;}.cls-5,.cls-7{font-size:12px;font-family:MyriadPro-Regular, Myriad Pro;}.cls-6{letter-spacing:-0.01em;}.cls-8{letter-spacing:-0.01em;}.cls-9{letter-spacing:-0.01em;}.cls-10{letter-spacing:0.02em;}.cls-11{letter-spacing:0em;}.cls-12{letter-spacing:-0.01em;}.cls-13{letter-spacing:0.01em;}.cls-14{letter-spacing:0em;}</style></defs><g id="footer"><rect class="cls-1" x="0.5" y="47.16" width="301" height="45.25"/><path d="M390,143.52v44.25H90V143.52H390m1-1H89v46.25H391V142.52Z" transform="translate(-89 -95.86)"/><rect class="cls-2" x="4.78" y="50.77" width="292.44" height="38.03"/><rect class="cls-3" x="4.78" y="50.77" width="292.44" height="38.03"/></g><g id="article"><rect class="cls-1" x="0.5" y="92.64" width="188" height="116"/><path d="M277,189V304H90V189H277m1-1H89V305H278V188Z" transform="translate(-89 -95.86)"/><rect class="cls-2" x="5.19" y="97.14" width="177.81" height="106"/><rect class="cls-4" x="5.19" y="97.14" width="177.81" height="106"/></g><g id="aside"><rect class="cls-1" x="188.5" y="92.64" width="113.09" height="233"/><path d="M390.09,189V421H278V189H390.09m1-1H277V422H391.09V188Z" transform="translate(-89 -95.86)"/></g><g id="section"><rect class="cls-1" x="0.5" y="209.26" width="187.71" height="116"/><path d="M276.71,305.62v115H90v-115H276.71m1-1H89v117H277.71v-117Z" transform="translate(-89 -95.86)"/></g><g id="nav"><rect class="cls-1" x="0.5" y="325.64" width="301" height="45.77"/><path d="M390,422v44.77H90V422H390m1-1H89v46.77H391V421Z" transform="translate(-89 -95.86)"/><rect class="cls-2" x="4.58" y="329.77" width="292.84" height="38.03"/><rect class="cls-2" x="193" y="96.14" width="104" height="224.5"/><rect class="cls-2" x="5.21" y="213.76" width="177.47" height="106.88"/><rect class="cls-4" x="193" y="96.14" width="104" height="224.5"/><rect class="cls-4" x="5.21" y="213.76" width="177.47" height="106.88"/><rect class="cls-4" x="4.58" y="329.77" width="292.84" height="38.03"/><text class="cls-5" transform="translate(118.24 20.55)">head<tspan class="cls-6" x="25.22" y="0">r</tspan><tspan x="29.03" y="0">e</tspan></text></g><g id="header"><rect class="cls-1" x="0.5" y="0.5" width="301" height="46.14"/><path d="M390,96.86V142H90V96.86H390m1-1H89V143H391V95.86Z" transform="translate(-89 -95.86)"/><rect class="cls-2" x="4.58" y="4.19" width="292.84" height="38.76"/><rect class="cls-4" x="4.58" y="4.19" width="292.84" height="38.76"/><text class="cls-7" transform="translate(128.27 29.05)">&lt;header&gt;</text><text class="cls-7" transform="translate(223.02 212.49)">&lt;aside&gt;</text><text class="cls-7" transform="translate(128.67 353.14)">&lt;<tspan class="cls-8" x="7.15" y="0">f</tspan><tspan x="10.5" y="0">oo</tspan><tspan class="cls-9" x="23.68" y="0">t</tspan><tspan x="27.58" y="0">er&gt;</tspan></text><text class="cls-7" transform="translate(71.47 274.67)">&lt;a<tspan class="cls-10" x="12.94" y="0">r</tspan><tspan class="cls-11" x="17.15" y="0">ticle&gt;</tspan></text><text class="cls-7" transform="translate(134.79 69.78)">&lt;n<tspan class="cls-12" x="13.81" y="0">a</tspan><tspan x="19.5" y="0">v&gt;</tspan></text><text class="cls-7" transform="translate(67.69 146.14)">&lt;se<tspan class="cls-13" x="17.92" y="0">c</tspan><tspan class="cls-14" x="23.45" y="0">tion&gt;</tspan></text></g></svg>