<svg id="Capa_1" data-name="Capa 1" xmlns="http://www.w3.org/2000/svg" viewBox="0 0 327 98.78"><defs><style>.cls-1{font-size:18px;fill:blue;font-family:Consolas;}.cls-2{fill:#000;}.cls-3{fill:aqua;}.cls-4{fill:#f15a24;}.cls-5{fill:#ed1c24;}.cls-14,.cls-6{fill:none;stroke:lime;stroke-miterlimit:10;}.cls-6{stroke-width:3px;}.cls-12,.cls-7{font-size:12px;fill:#bb1cff;font-family:MyriadPro-Regular, Myriad Pro;}.cls-8{letter-spacing:-0.01em;}.cls-9{letter-spacing:0em;}.cls-10{letter-spacing:0em;}.cls-11{letter-spacing:-0.01em;}.cls-12{letter-spacing:-0.03em;}.cls-13{letter-spacing:0em;}.cls-14{stroke-width:2px;}</style></defs><text class="cls-1" transform="translate(0 53.78)">&lt;img<tspan class="cls-2" x="39.59" y="0"> </tspan><tspan class="cls-3" x="49.48" y="0">src</tspan><tspan class="cls-2" x="79.17" y="0">=</tspan><tspan class="cls-4" x="89.07" y="0">”hola.jpg”</tspan><tspan class="cls-2" x="188.03" y="0"> </tspan><tspan class="cls-3" x="197.93" y="0">alt</tspan><tspan class="cls-2" x="227.62" y="0">=</tspan><tspan class="cls-5" x="237.52" y="0">”¡Hola!”</tspan><tspan x="316.69" y="0">&gt;</tspan></text><line class="cls-6" x1="2" y1="31.78" x2="36" y2="31.78"/><line class="cls-6" x1="51.5" y1="65.28" x2="75.5" y2="65.28"/><line class="cls-6" x1="89.5" y1="65.28" x2="187.5" y2="65.28"/><text class="cls-7" transform="translate(2.7 10.04)">Nomb<tspan class="cls-8" x="31.32" y="0">r</tspan><tspan class="cls-9" x="35.12" y="0">e de etiqueta</tspan></text><text class="cls-7" transform="translate(41.89 95.78)"><tspan class="cls-8">A</tspan><tspan x="7.22" y="0">t</tspan><tspan class="cls-10" x="11.2" y="0">r</tspan><tspan x="15.17" y="0">ibu</tspan><tspan class="cls-11" x="31.42" y="0">t</tspan><tspan x="35.32" y="0">o</tspan></text><text class="cls-12" transform="translate(121.69 94.75)">V<tspan class="cls-13" x="6.3" y="0">alor</tspan></text><line class="cls-14" x1="19" y1="31.78" x2="19" y2="14.78"/><line class="cls-14" x1="63" y1="65.78" x2="63" y2="82.78"/><line class="cls-14" x1="135" y1="65.78" x2="135" y2="83.78"/></svg>