<svg id="Capa_1" data-name="Capa 1" xmlns="http://www.w3.org/2000/svg" viewBox="0 0 481.24 171.25"><defs><style>.cls-1{fill:#0071bc;}.cls-2{fill:#fff;}.cls-3{fill:#3fa9f5;}.cls-4{fill:none;stroke:lime;stroke-linecap:round;stroke-miterlimit:10;stroke-width:2px;}.cls-5{fill:#39b54a;}</style></defs><rect class="cls-1" x="76.24" y="101.37" width="405" height="38" rx="12"/><path class="cls-2" d="M166.84,228.55a3.67,3.67,0,0,1-2.84-1.1,4.36,4.36,0,0,1-1-3.06,7.77,7.77,0,0,1,.23-1.86,7.52,7.52,0,0,0,.24-1.91,1.11,1.11,0,0,0-.53-1,3.49,3.49,0,0,0-1.25-.5,6.9,6.9,0,0,0-1.25-.14v-1.77a4.57,4.57,0,0,0,.9-.11,5,5,0,0,0,1-.31,2.68,2.68,0,0,0,.81-.51,1,1,0,0,0,.32-.69,7.45,7.45,0,0,0-.24-1.93,7.54,7.54,0,0,1-.23-1.84,4,4,0,0,1,1-2.93,3.82,3.82,0,0,1,2.84-1,8.12,8.12,0,0,1,1.1.07,6.11,6.11,0,0,1,.81.16l-.27,1.91-.76-.09-.68,0a1.49,1.49,0,0,0-1.22.5,2.18,2.18,0,0,0-.42,1.43,6.69,6.69,0,0,0,.26,1.86,6.76,6.76,0,0,1,.26,1.87,2.06,2.06,0,0,1-.78,1.72,3.45,3.45,0,0,1-2.16.63v.39a3.39,3.39,0,0,1,2.16.65,2.09,2.09,0,0,1,.78,1.71,6.82,6.82,0,0,1-.26,1.9,6.62,6.62,0,0,0-.26,1.82,2.58,2.58,0,0,0,.42,1.58,1.44,1.44,0,0,0,1.22.56,5.49,5.49,0,0,0,.68,0l.76-.07.27,1.9a6.08,6.08,0,0,1-.81.17A8.33,8.33,0,0,1,166.84,228.55Z" transform="translate(-74.76 -97.63)"/><path class="cls-2" d="M179,226.37a6.47,6.47,0,0,1-4.7-1.6,6.09,6.09,0,0,1-1.66-4.6,6.23,6.23,0,0,1,1.57-4.54,6,6,0,0,1,4.47-1.61,6.37,6.37,0,0,1,3,.64,3.74,3.74,0,0,1,1.77,1.83l-1.83,1.38a3.64,3.64,0,0,0-1.29-1.27,3.73,3.73,0,0,0-4.34.57,4.94,4.94,0,0,0,.17,6,4.26,4.26,0,0,0,3.13,1.08c.55,0,1.1,0,1.66-.08s1.09-.13,1.61-.22l.27,2.09a11.59,11.59,0,0,1-1.9.27C180.3,226.35,179.66,226.37,179,226.37Z" transform="translate(-74.76 -97.63)"/><path class="cls-2" d="M191.37,226.37a4.75,4.75,0,0,1-3.84-1.62,8.27,8.27,0,0,1,0-9.12,5.38,5.38,0,0,1,7.68,0,8.27,8.27,0,0,1,0,9.12A4.75,4.75,0,0,1,191.37,226.37Zm0-2.13a2.3,2.3,0,0,0,2-1.06,6.57,6.57,0,0,0,0-6,2.48,2.48,0,0,0-4,0,6.65,6.65,0,0,0,0,6A2.31,2.31,0,0,0,191.37,224.24Z" transform="translate(-74.76 -97.63)"/><path class="cls-2" d="M199.21,211.25V209.3h3.7v1.95Zm7.41,15.12a3.64,3.64,0,0,1-3-1.12,5.69,5.69,0,0,1-.92-3.6V209.3h2.38v12.24a5.46,5.46,0,0,0,.18,1.54,1.41,1.41,0,0,0,.7.88,3.46,3.46,0,0,0,1.55.28,9,9,0,0,0,2.38-.43l.27,2.09a15.58,15.58,0,0,1-1.75.36A14.5,14.5,0,0,1,206.62,226.37Z" transform="translate(-74.76 -97.63)"/><path class="cls-2" d="M218.32,226.37a4.75,4.75,0,0,1-3.84-1.62,8.27,8.27,0,0,1,0-9.12,5.4,5.4,0,0,1,7.69,0,8.32,8.32,0,0,1,0,9.12A4.77,4.77,0,0,1,218.32,226.37Zm0-2.13a2.32,2.32,0,0,0,2-1.06,6.65,6.65,0,0,0,0-6,2.49,2.49,0,0,0-4.06,0,6.65,6.65,0,0,0,0,6A2.32,2.32,0,0,0,218.32,224.24Z" transform="translate(-74.76 -97.63)"/><path class="cls-2" d="M226,226.15v-2h7.95v2Zm.45-10v-2h4l.23,2Zm2.2,10V214.24h1.93l.45,3.42v8.49ZM231,221l-.7-3.72h.92q.21-3.28,3.28-3.28a3.19,3.19,0,0,1,2.67,1,5.52,5.52,0,0,1,.84,3.42h-2.36a3.44,3.44,0,0,0-.39-1.88A1.41,1.41,0,0,0,234,216a2.46,2.46,0,0,0-2.27,1.29A7.6,7.6,0,0,0,231,221Z" transform="translate(-74.76 -97.63)"/><path class="cls-2" d="M245.27,217.34a1.59,1.59,0,0,1-1.17-.49,1.65,1.65,0,0,1,0-2.35,1.62,1.62,0,0,1,1.17-.48,1.65,1.65,0,0,1,1.18,2.83A1.57,1.57,0,0,1,245.27,217.34Zm0,9a1.67,1.67,0,0,1-1.66-1.66,1.57,1.57,0,0,1,.49-1.18,1.62,1.62,0,0,1,1.17-.48,1.66,1.66,0,0,1,1.67,1.66,1.62,1.62,0,0,1-.49,1.17A1.57,1.57,0,0,1,245.27,226.37Z" transform="translate(-74.76 -97.63)"/><path class="cls-2" d="M253.84,226.15V209.3h2.38v16.64Zm3.19.22q-.81,0-1.59-.06c-.53,0-1.06-.1-1.6-.16l.92-2.18a4,4,0,0,0,1.32.33c.48,0,.95,0,1.42,0a4.26,4.26,0,0,0,3.32-1.29,5.25,5.25,0,0,0,1.18-3.65,3.86,3.86,0,0,0-.72-2.5,2.47,2.47,0,0,0-2-.87q-3,0-3,3.41l-.69-3h.92c.11-1.59,1.08-2.38,2.92-2.38a4.76,4.76,0,0,1,3.68,1.4,5.66,5.66,0,0,1,1.3,4,6.71,6.71,0,0,1-1.91,5.13A7.52,7.52,0,0,1,257,226.37Z" transform="translate(-74.76 -97.63)"/><path class="cls-2" d="M266.59,211.25V209.3h3.7v1.95ZM274,226.37a3.65,3.65,0,0,1-3-1.12,5.69,5.69,0,0,1-.92-3.6V209.3h2.38v12.24a5.46,5.46,0,0,0,.18,1.54,1.45,1.45,0,0,0,.7.88,3.48,3.48,0,0,0,1.55.28,9,9,0,0,0,2.38-.43l.27,2.09a15.58,15.58,0,0,1-1.75.36A14.38,14.38,0,0,1,274,226.37Z" transform="translate(-74.76 -97.63)"/><path class="cls-2" d="M284.53,226.37a3.73,3.73,0,0,1-2.9-1.12,4.49,4.49,0,0,1-1-3.15v-7.86H283v7.86a2.08,2.08,0,0,0,.59,1.58,2.28,2.28,0,0,0,1.64.56,2.36,2.36,0,0,0,2-.83,4.41,4.41,0,0,0,.67-2.77l.6,3.21h-.78a3.29,3.29,0,0,1-1.1,1.87A3.19,3.19,0,0,1,284.53,226.37Zm3.31-3.59v-8.54h2.38v7.86Zm.2,3.48-.2-2.85v-2.09h2.38V224l1.64.25v1.91Z" transform="translate(-74.76 -97.63)"/><path class="cls-2" d="M300.32,226.37a6.5,6.5,0,0,1-4.7-1.6,6.12,6.12,0,0,1-1.65-4.6,6.74,6.74,0,0,1,1.4-4.54,5,5,0,0,1,4-1.61,4.74,4.74,0,0,1,3.73,1.46,6.1,6.1,0,0,1,1.32,4.24,14.58,14.58,0,0,1-.07,1.53H296v-1.82h6.26a3.62,3.62,0,0,0-.76-2.47,2.68,2.68,0,0,0-2.11-.85,2.84,2.84,0,0,0-2.35,1,4.51,4.51,0,0,0-.84,2.92,4.08,4.08,0,0,0,1.15,3.14,4.61,4.61,0,0,0,3.27,1.08,13.83,13.83,0,0,0,1.46-.08c.48-.06,1-.14,1.46-.23l.3,2.09a15.19,15.19,0,0,1-1.94.25C301.29,226.35,300.77,226.37,300.32,226.37Z" transform="translate(-74.76 -97.63)"/><path class="cls-2" d="M310.54,231l.9-7.75h2.61L312.7,231Zm2.12-13.7a1.66,1.66,0,0,1-1.18-2.84,1.63,1.63,0,0,1,1.18-.48,1.59,1.59,0,0,1,1.17.48,1.67,1.67,0,0,1-1.17,2.84Z" transform="translate(-74.76 -97.63)"/><path class="cls-2" d="M333.63,218.89v-1.95h11v1.95Zm3.75,7.26v-10.9c0-4.12,1.88-6.17,5.64-6.17a13.2,13.2,0,0,1,2.47.22l-.24,2.07c-.48-.06-.89-.1-1.25-.13l-1,0q-3.19,0-3.19,3.93v11Z" transform="translate(-74.76 -97.63)"/><path class="cls-2" d="M353.08,226.37a4.77,4.77,0,0,1-3.84-1.62,8.27,8.27,0,0,1,0-9.12,5.4,5.4,0,0,1,7.69,0,8.27,8.27,0,0,1,0,9.12A4.75,4.75,0,0,1,353.08,226.37Zm0-2.13a2.31,2.31,0,0,0,2-1.06,6.57,6.57,0,0,0,0-6,2.48,2.48,0,0,0-4.05,0,6.57,6.57,0,0,0,0,6A2.3,2.3,0,0,0,353.08,224.24Z" transform="translate(-74.76 -97.63)"/><path class="cls-2" d="M361.71,226.15V214.24h2.16l.22,2.52v9.39Zm7.32,0V218.4a2.3,2.3,0,0,0-.56-1.67,2.11,2.11,0,0,0-1.57-.58q-2.81,0-2.81,3.3l-.7-3h.93a2.33,2.33,0,0,1,.87-1.79,3.66,3.66,0,0,1,2.27-.59,3.74,3.74,0,0,1,2.92,1.14,4.67,4.67,0,0,1,1,3.24v7.75Z" transform="translate(-74.76 -97.63)"/><path class="cls-2" d="M374.09,216.2v-2h10.78v2Zm3,4.33v-9.88h2.38v9.88Zm5.12,5.84a5.64,5.64,0,0,1-3.91-1.12,4.74,4.74,0,0,1-1.21-3.6v-2h2.38v1.91a2.71,2.71,0,0,0,.69,2.06,3.36,3.36,0,0,0,2.28.64,10.08,10.08,0,0,0,1.19-.07c.42,0,.9-.09,1.44-.16l.27,2.09c-.53.09-1,.16-1.54.2A15.78,15.78,0,0,1,382.19,226.37Z" transform="translate(-74.76 -97.63)"/><path class="cls-2" d="M387.9,219.23v-2.09h11.23v2.09Z" transform="translate(-74.76 -97.63)"/><path class="cls-2" d="M406.07,226.37c-.9,0-1.67,0-2.31-.08A12.58,12.58,0,0,1,402,226l.27-2.15c.79.12,1.48.21,2.09.27s1.17.09,1.71.09a6.93,6.93,0,0,0,2.62-.36,1.17,1.17,0,0,0,.82-1.13,1,1,0,0,0-.29-.8,2,2,0,0,0-.88-.41l-2.74-.7a6.8,6.8,0,0,1-2.59-1.11,2.42,2.42,0,0,1-.83-2,3,3,0,0,1,1.5-2.83,10.09,10.09,0,0,1,4.84-.87c.58,0,1.11,0,1.61,0s1,.09,1.53.17l-.24,2.07c-.61-.06-1.15-.1-1.61-.13l-1.36,0a8.84,8.84,0,0,0-2.9.34,1.18,1.18,0,0,0-.89,1.12.82.82,0,0,0,.37.75,4.22,4.22,0,0,0,1.13.42l2.2.54a6.62,6.62,0,0,1,2.75,1.2,2.73,2.73,0,0,1,.87,2.19,3,3,0,0,1-1.41,2.79A8.82,8.82,0,0,1,406.07,226.37Z" transform="translate(-74.76 -97.63)"/><path class="cls-2" d="M415.53,226.15v-2h4.76v2Zm.67-10v-2h6.24v2Zm5-3.85a1.66,1.66,0,1,1,0-3.32,1.66,1.66,0,1,1,0,3.32Zm-1.12,13.8V214.92h2.38v11.23Zm2.16,0v-2h3.89v2Z" transform="translate(-74.76 -97.63)"/><path class="cls-2" d="M429,216.22v-2h9.62v2Zm1.64,9.32L429,224.17l8-9.28,1.64,1.33Zm-1.64.61v-2h9.84v2Z" transform="translate(-74.76 -97.63)"/><path class="cls-2" d="M448.57,226.37a6.47,6.47,0,0,1-4.7-1.6,6.09,6.09,0,0,1-1.66-4.6,6.74,6.74,0,0,1,1.4-4.54,5,5,0,0,1,4-1.61,4.74,4.74,0,0,1,3.73,1.46,6.1,6.1,0,0,1,1.32,4.24,14.58,14.58,0,0,1-.07,1.53h-8.35v-1.82h6.27a3.62,3.62,0,0,0-.77-2.47,2.68,2.68,0,0,0-2.11-.85,2.85,2.85,0,0,0-2.35,1,4.51,4.51,0,0,0-.84,2.92,4.08,4.08,0,0,0,1.15,3.14,4.62,4.62,0,0,0,3.28,1.08,14.13,14.13,0,0,0,1.46-.08c.48-.06,1-.14,1.46-.23l.29,2.09a15.28,15.28,0,0,1-1.93.25C449.53,226.35,449,226.37,448.57,226.37Z" transform="translate(-74.76 -97.63)"/><path class="cls-2" d="M460.9,217.34a1.67,1.67,0,0,1-1.18-2.84,1.69,1.69,0,0,1,2.36,0,1.67,1.67,0,0,1-1.18,2.84Zm0,9a1.67,1.67,0,0,1-1.18-2.84,1.69,1.69,0,0,1,2.36,0,1.67,1.67,0,0,1-1.18,2.84Z" transform="translate(-74.76 -97.63)"/><path class="cls-2" d="M469.54,226.15V224h4.27v2.14Zm.23-12.34v-2.26l3.82-1.35v2.31Zm3.82,12.34v-16h2.24v16Zm2,0V224h3.84v2.14Z" transform="translate(-74.76 -97.63)"/><path class="cls-2" d="M482.82,226.15v-2.52a19,19,0,0,0,5.52-4.27,7.14,7.14,0,0,0,1.82-4.58,2.8,2.8,0,0,0-.67-2.05,2.74,2.74,0,0,0-2-.69,4.06,4.06,0,0,0-1.9.53,5.48,5.48,0,0,0-1.7,1.4l-1.55-1.54a5.47,5.47,0,0,1,2.2-1.78,7,7,0,0,1,3-.68,5.26,5.26,0,0,1,3.78,1.2,4.75,4.75,0,0,1,1.25,3.61,8.12,8.12,0,0,1-1.53,4.66,16.67,16.67,0,0,1-4.67,4.28v2.43Zm.67,0v-2.09h9.71v2.09Z" transform="translate(-74.76 -97.63)"/><path class="cls-2" d="M496.48,231.31V214.24h2.15l.23,2.52v14.55Zm5.76-4.94a3.58,3.58,0,0,1-2.21-.63,2.39,2.39,0,0,1-.95-1.75h-1l.81-3.39a4.56,4.56,0,0,0,.72,2.79,2.49,2.49,0,0,0,2.13,1,2.53,2.53,0,0,0,2.18-1,5.15,5.15,0,0,0,.74-3,5.65,5.65,0,0,0-.74-3.19,2.48,2.48,0,0,0-2.18-1.08,2.51,2.51,0,0,0-2.13,1,4.61,4.61,0,0,0-.72,2.8l-.81-3.39H499a2.44,2.44,0,0,1,1-1.75,3.7,3.7,0,0,1,2.25-.63,4.19,4.19,0,0,1,3.55,1.59,7.74,7.74,0,0,1,1.2,4.7,7.23,7.23,0,0,1-1.2,4.52A4.24,4.24,0,0,1,502.24,226.37Z" transform="translate(-74.76 -97.63)"/><path class="cls-2" d="M517.66,226.15,514,221l-4.78-6.76H512l3.66,5.35,4.74,6.56Zm-8.4,0,4.74-6.56,3.66-5.35h2.69L515.43,221,512,226.15Z" transform="translate(-74.76 -97.63)"/><path class="cls-2" d="M526.17,231l.9-7.75h2.6L528.33,231Zm2.11-13.7a1.66,1.66,0,0,1-1.17-2.84,1.66,1.66,0,0,1,2.35,2.35A1.57,1.57,0,0,1,528.28,217.34Z" transform="translate(-74.76 -97.63)"/><path class="cls-2" d="M539.35,228.55a8.27,8.27,0,0,1-1.09-.06,5.91,5.91,0,0,1-.82-.17l.27-1.9.76.07a5.6,5.6,0,0,0,.68,0,1.44,1.44,0,0,0,1.22-.56,2.58,2.58,0,0,0,.42-1.58,6.26,6.26,0,0,0-.26-1.82,6.82,6.82,0,0,1-.26-1.9,2.09,2.09,0,0,1,.78-1.71,3.42,3.42,0,0,1,2.17-.65v-.39a3.48,3.48,0,0,1-2.17-.63,2.06,2.06,0,0,1-.78-1.72,6.76,6.76,0,0,1,.26-1.87,6.34,6.34,0,0,0,.26-1.86,2.18,2.18,0,0,0-.42-1.43,1.49,1.49,0,0,0-1.22-.5l-.68,0-.76.09-.27-1.91a6,6,0,0,1,.82-.16,8.07,8.07,0,0,1,1.09-.07,3.82,3.82,0,0,1,2.84,1,4,4,0,0,1,1,2.93,7.08,7.08,0,0,1-.23,1.84,7.45,7.45,0,0,0-.24,1.93,1,1,0,0,0,.32.69,3,3,0,0,0,.81.51,5.13,5.13,0,0,0,1,.31,4.57,4.57,0,0,0,.89.11V219a7,7,0,0,0-1.25.14,3.44,3.44,0,0,0-1.24.5,1.1,1.1,0,0,0-.54,1,7.52,7.52,0,0,0,.24,1.91,7.29,7.29,0,0,1,.23,1.86,4.36,4.36,0,0,1-1,3.06A3.67,3.67,0,0,1,539.35,228.55Z" transform="translate(-74.76 -97.63)"/><rect class="cls-1" x="10.24" y="101.37" width="55" height="38" rx="12"/><path class="cls-2" d="M101.23,224.71V207.86h2.38v16.85Zm7.33,0V217a2.47,2.47,0,0,0-.57-1.75,2,2,0,0,0-1.57-.61q-2.81,0-2.81,3.41l-.69-3h.92a2.37,2.37,0,0,1,.88-1.79,3.63,3.63,0,0,1,2.26-.59,3.74,3.74,0,0,1,2.92,1.14,4.67,4.67,0,0,1,1,3.24v7.75Z" transform="translate(-74.76 -97.63)"/><path class="cls-2" d="M114.73,224.71v-2.14H119v2.14Zm.23-12.33v-2.27l3.82-1.35v2.31Zm3.82,12.33v-16H121v16Zm2,0v-2.14h3.84v2.14Z" transform="translate(-74.76 -97.63)"/><path class="cls-3" d="M87,180.18a6.92,6.92,0,0,1-1.33-.12,5.13,5.13,0,0,1-1.15-.34l.16-1.18a7.48,7.48,0,0,0,1.24.41,4.82,4.82,0,0,0,1.17.15,2.11,2.11,0,0,0,1.22-.29,1,1,0,0,0,.4-.87,1.15,1.15,0,0,0-.76-1.09l-1.45-.66a3.69,3.69,0,0,1-1.3-.93,2,2,0,0,1-.45-1.35,2.16,2.16,0,0,1,.65-1.69,2.67,2.67,0,0,1,1.86-.6,4,4,0,0,1,1.48.25,3.69,3.69,0,0,1,1.24.8l-.82.83a4.1,4.1,0,0,0-1-.61,2.31,2.31,0,0,0-.93-.19,1.39,1.39,0,0,0-.94.29,1.08,1.08,0,0,0-.33.86,1,1,0,0,0,.22.66,1.72,1.72,0,0,0,.64.45l1.21.58a4.15,4.15,0,0,1,1.41,1,2.05,2.05,0,0,1,.48,1.4,2,2,0,0,1-.73,1.7A3.63,3.63,0,0,1,87,180.18Z" transform="translate(-74.76 -97.63)"/><path class="cls-3" d="M91.73,180.06v-8.32H92.9v8.32Zm0-7.21v-1.11h5.5v1.11Zm0,3.6v-1.11h4.45v1.11Zm0,3.61V179h5.5v1.11Z" transform="translate(-74.76 -97.63)"/><path class="cls-3" d="M98.76,180.06v-8.32h1.17v8.32Zm0,0V179h5.51v1.11Z" transform="translate(-74.76 -97.63)"/><path class="cls-3" d="M105.79,180.06v-8.32H107v8.32Zm0-7.21v-1.11h5.51v1.11Zm0,3.6v-1.11h4.45v1.11Zm0,3.61V179h5.51v1.11Z" transform="translate(-74.76 -97.63)"/><path class="cls-3" d="M116.27,180.18q-3.88,0-3.88-4.29a4.62,4.62,0,0,1,1-3.15,3.48,3.48,0,0,1,2.76-1.12,3.79,3.79,0,0,1,1.5.27,1.94,1.94,0,0,1,.94.78l-.87.86a1.86,1.86,0,0,0-.67-.61,1.8,1.8,0,0,0-.88-.22,2.26,2.26,0,0,0-1.82.81,3.56,3.56,0,0,0-.68,2.32q0,3.27,2.82,3.27a4.32,4.32,0,0,0,1.68-.35l.27,1A5.94,5.94,0,0,1,116.27,180.18Z" transform="translate(-74.76 -97.63)"/><path class="cls-3" d="M119.38,172.85v-1.11h6.1v1.11Zm2.46,7.21v-8.32H123v8.32Z" transform="translate(-74.76 -97.63)"/><path class="cls-3" d="M129.46,180.18q-3.08,0-3.07-4.22t3.07-4.34q3.07,0,3.07,4.34T129.46,180.18Zm0-1.08c1.23,0,1.84-1,1.84-3.14s-.61-3.26-1.84-3.26-1.84,1.09-1.84,3.26S128.23,179.1,129.46,179.1Z" transform="translate(-74.76 -97.63)"/><path class="cls-3" d="M133.8,180.06v-8.32H135v8.32Zm1.09-3.17v-1.11h1.77a1.49,1.49,0,0,0,1.08-.37,1.34,1.34,0,0,0,.39-1,1.54,1.54,0,0,0-.39-1.13,1.43,1.43,0,0,0-1.08-.4h-1.75l-.14-1.11h1.89a2.86,2.86,0,0,1,2,.65,2.43,2.43,0,0,1,.7,1.87,2.59,2.59,0,0,1-.7,1.94,2.75,2.75,0,0,1-2,.69Zm3.37,3.17-1.86-3.92h1.29l2,3.92Z" transform="translate(-74.76 -97.63)"/><path class="cls-3" d="M199.15,156.71v-8.32h1.17v8.32Zm1.09,0v-1.12h.92a2.42,2.42,0,0,0,1.93-.73,3.2,3.2,0,0,0,.65-2.2,3.6,3.6,0,0,0-.65-2.37,2.33,2.33,0,0,0-1.93-.79h-.9l-.14-1.11h1q3.81,0,3.81,4.27,0,4.05-3.81,4.05Z" transform="translate(-74.76 -97.63)"/><path class="cls-3" d="M206.3,156.71v-8.32h1.17v8.32Zm0-7.21v-1.11h5.5v1.11Zm0,3.6V152h4.45v1.12Zm0,3.61v-1.12h5.5v1.12Z" transform="translate(-74.76 -97.63)"/><path class="cls-3" d="M216.77,156.82c-2.58,0-3.88-1.43-3.88-4.29a4.66,4.66,0,0,1,1-3.15,3.51,3.51,0,0,1,2.76-1.11,3.79,3.79,0,0,1,1.5.27,1.82,1.82,0,0,1,.93.78l-.86.86a1.89,1.89,0,0,0-.67-.62,1.94,1.94,0,0,0-.89-.21,2.26,2.26,0,0,0-1.81.81,3.55,3.55,0,0,0-.68,2.32q0,3.27,2.82,3.27a4.16,4.16,0,0,0,1.68-.36l.27,1A5.78,5.78,0,0,1,216.77,156.82Z" transform="translate(-74.76 -97.63)"/><path class="cls-3" d="M220.36,156.71v-8.32h1.17v8.32Zm0,0v-1.12h5.51v1.12Z" transform="translate(-74.76 -97.63)"/><path class="cls-3" d="M226.72,156.71l2.4-8.32h1.7l2.4,8.32H232l-2-7.32h-.1l-2,7.32Zm1.11-2v-1.11h4.22v1.11Z" transform="translate(-74.76 -97.63)"/><path class="cls-3" d="M234.3,156.71v-8.32h1.18v8.32Zm1.09-3.17v-1.11h1.77a1.5,1.5,0,0,0,1.09-.37,1.36,1.36,0,0,0,.39-1,1.55,1.55,0,0,0-.39-1.13,1.47,1.47,0,0,0-1.09-.39h-1.74l-.14-1.11h1.88a2.84,2.84,0,0,1,2,.65,2.43,2.43,0,0,1,.7,1.87,2.59,2.59,0,0,1-.7,1.94,2.77,2.77,0,0,1-2,.69Zm3.38,3.17-1.86-3.92h1.29l2,3.92Z" transform="translate(-74.76 -97.63)"/><path class="cls-3" d="M240.78,156.71l2.4-8.32h1.7l2.4,8.32h-1.23l-2-7.32H244l-2,7.32Zm1.11-2v-1.11h4.22v1.11Z" transform="translate(-74.76 -97.63)"/><path class="cls-3" d="M251.93,156.82q-3.88,0-3.88-4.29a4.66,4.66,0,0,1,1-3.15,3.48,3.48,0,0,1,2.76-1.11,3.86,3.86,0,0,1,1.5.27,1.86,1.86,0,0,1,.93.78l-.87.86a1.81,1.81,0,0,0-.67-.62,1.87,1.87,0,0,0-.88-.21,2.24,2.24,0,0,0-1.81.81,3.49,3.49,0,0,0-.69,2.32c0,2.18.95,3.27,2.83,3.27a4.12,4.12,0,0,0,1.67-.36l.27,1A5.73,5.73,0,0,1,251.93,156.82Z" transform="translate(-74.76 -97.63)"/><path class="cls-3" d="M255.56,149.5v-1.11h5.06v1.11Zm0,7.21v-1.12h5.06v1.12Zm1.94,0v-8.32h1.17v8.32Z" transform="translate(-74.76 -97.63)"/><path class="cls-3" d="M265.12,156.82c-2,0-3.07-1.4-3.07-4.22s1-4.33,3.07-4.33,3.08,1.44,3.08,4.33S267.17,156.82,265.12,156.82Zm0-1.07c1.23,0,1.84-1.05,1.84-3.15s-.61-3.25-1.84-3.25-1.83,1.08-1.83,3.25S263.9,155.75,265.12,155.75Zm-.76-8.3,1.29-1.47h1.65l-1.58,1.47Z" transform="translate(-74.76 -97.63)"/><path class="cls-3" d="M269.51,156.71v-8.32h1.12v8.32Zm3.82,0-2.58-6.33h-.54v-2H271l2.58,6.32h.3v2Zm.35,0v-8.32h1.12v8.32Z" transform="translate(-74.76 -97.63)"/><path class="cls-3" d="M411.85,156.87v-8.32H413v8.32Zm1.09,0v-1.11h.93a2.42,2.42,0,0,0,1.93-.73,3.25,3.25,0,0,0,.65-2.2,3.71,3.71,0,0,0-.65-2.38,2.36,2.36,0,0,0-1.93-.78H413l-.14-1.12h1q3.81,0,3.81,4.28c0,2.7-1.27,4-3.81,4Z" transform="translate(-74.76 -97.63)"/><path class="cls-3" d="M419,156.87v-8.32h1.17v8.32Zm0-7.2v-1.12h5.51v1.12Zm0,3.59v-1.11h4.46v1.11Zm0,3.61v-1.11h5.51v1.11Z" transform="translate(-74.76 -97.63)"/><path class="cls-3" d="M429.48,157q-3.89,0-3.88-4.29a4.66,4.66,0,0,1,1-3.15,3.48,3.48,0,0,1,2.76-1.11,3.86,3.86,0,0,1,1.5.27,1.9,1.9,0,0,1,.93.77l-.87.87a1.81,1.81,0,0,0-.67-.62,1.88,1.88,0,0,0-.88-.22,2.25,2.25,0,0,0-1.81.82,3.46,3.46,0,0,0-.69,2.31c0,2.18.95,3.27,2.83,3.27a4.28,4.28,0,0,0,1.67-.35l.27,1A5.73,5.73,0,0,1,429.48,157Z" transform="translate(-74.76 -97.63)"/><path class="cls-3" d="M433.07,156.87v-8.32h1.17v8.32Zm0,0v-1.11h5.5v1.11Z" transform="translate(-74.76 -97.63)"/><path class="cls-3" d="M439.42,156.87l2.41-8.32h1.69l2.41,8.32H444.7l-2-7.31h-.11l-2,7.31Zm1.12-2v-1.12h4.21v1.12Z" transform="translate(-74.76 -97.63)"/><path class="cls-3" d="M447,156.87v-8.32h1.17v8.32Zm1.09-3.16V152.6h1.77a1.56,1.56,0,0,0,1.09-.37,1.38,1.38,0,0,0,.39-1,1.55,1.55,0,0,0-.39-1.13,1.48,1.48,0,0,0-1.09-.39h-1.75l-.14-1.12h1.89a2.82,2.82,0,0,1,2,.66,2.43,2.43,0,0,1,.71,1.86,2.61,2.61,0,0,1-.71,2,2.75,2.75,0,0,1-2,.69Zm3.38,3.16L449.61,153h1.29l2,3.91Z" transform="translate(-74.76 -97.63)"/><path class="cls-3" d="M453.49,156.87l2.4-8.32h1.7l2.4,8.32h-1.23l-2-7.31h-.11l-2,7.31Zm1.11-2v-1.12h4.22v1.12Z" transform="translate(-74.76 -97.63)"/><path class="cls-3" d="M464.64,157q-3.88,0-3.88-4.29a4.61,4.61,0,0,1,1-3.15,3.48,3.48,0,0,1,2.76-1.11,3.86,3.86,0,0,1,1.5.27,1.94,1.94,0,0,1,.93.77l-.87.87a1.89,1.89,0,0,0-.67-.62,1.91,1.91,0,0,0-.88-.22,2.27,2.27,0,0,0-1.82.82,3.52,3.52,0,0,0-.68,2.31q0,3.27,2.82,3.27a4.32,4.32,0,0,0,1.68-.35l.27,1A5.73,5.73,0,0,1,464.64,157Z" transform="translate(-74.76 -97.63)"/><path class="cls-3" d="M468.27,149.67v-1.12h5.06v1.12Zm0,7.2v-1.11h5.06v1.11Zm1.94,0v-8.32h1.17v8.32Z" transform="translate(-74.76 -97.63)"/><path class="cls-3" d="M477.83,157q-3.07,0-3.07-4.22t3.07-4.33q3.07,0,3.07,4.33T477.83,157Zm0-1.08c1.23,0,1.84-1,1.84-3.14s-.61-3.26-1.84-3.26S476,150.6,476,152.77,476.6,155.91,477.83,155.91Zm-.77-8.29,1.29-1.47H480l-1.58,1.47Z" transform="translate(-74.76 -97.63)"/><path class="cls-3" d="M482.21,156.87v-8.32h1.13v8.32Zm3.82,0-2.57-6.33h-.54v-2h.77l2.58,6.33h.29v2Zm.36,0v-8.32h1.12v8.32Z" transform="translate(-74.76 -97.63)"/><path class="cls-3" d="M172.89,179.76v-8.32h1.17v8.32Zm1-2.58v-1.12h1.41a2,2,0,0,0,1.46-.47,1.87,1.87,0,0,0,.49-1.4,1.52,1.52,0,0,0-.49-1.23,2.25,2.25,0,0,0-1.46-.41h-1.39v-1.11h1.39a3.53,3.53,0,0,1,2.37.69,2.57,2.57,0,0,1,.81,2.06,2.92,2.92,0,0,1-.81,2.23,3.34,3.34,0,0,1-2.37.76Z" transform="translate(-74.76 -97.63)"/><path class="cls-3" d="M179.8,179.76v-8.32H181v8.32Zm1.09-3.17v-1.11h1.77a1.56,1.56,0,0,0,1.09-.37,1.36,1.36,0,0,0,.39-1,1.55,1.55,0,0,0-.39-1.13,1.48,1.48,0,0,0-1.09-.39h-1.75l-.14-1.11h1.89a2.82,2.82,0,0,1,2,.65,2.43,2.43,0,0,1,.71,1.86,2.61,2.61,0,0,1-.71,2,2.75,2.75,0,0,1-2,.69Zm3.37,3.17-1.86-3.92h1.29l2,3.92Z" transform="translate(-74.76 -97.63)"/><path class="cls-3" d="M189.53,179.87c-2.05,0-3.07-1.4-3.07-4.22s1-4.33,3.07-4.33,3.07,1.44,3.07,4.33S191.57,179.87,189.53,179.87Zm0-1.08c1.22,0,1.84-1,1.84-3.14s-.62-3.25-1.84-3.25-1.84,1.08-1.84,3.25S188.3,178.79,189.53,178.79Z" transform="translate(-74.76 -97.63)"/><path class="cls-3" d="M194,179.76v-8.32h1.17v8.32Zm1-2.58v-1.12h1.42a2,2,0,0,0,1.45-.47,1.87,1.87,0,0,0,.49-1.4,1.52,1.52,0,0,0-.49-1.23,2.24,2.24,0,0,0-1.45-.41H195v-1.11h1.4a3.56,3.56,0,0,1,2.37.69,2.57,2.57,0,0,1,.8,2.06,2.91,2.91,0,0,1-.8,2.23,3.37,3.37,0,0,1-2.37.76Z" transform="translate(-74.76 -97.63)"/><path class="cls-3" d="M201.06,172.55v-1.11h5.06v1.11Zm0,7.21v-1.12h5.06v1.12Zm1.94,0v-8.32h1.17v8.32Z" transform="translate(-74.76 -97.63)"/><path class="cls-3" d="M208,179.76v-8.32h1.17v8.32Zm0-7.21v-1.11h5.51v1.11Zm0,3.6V175h4.45v1.12Zm0,3.61v-1.12h5.51v1.12Z" transform="translate(-74.76 -97.63)"/><path class="cls-3" d="M215,179.76v-8.32h1.17v8.32Zm1.09,0v-1.12H217a2.42,2.42,0,0,0,1.93-.73,3.25,3.25,0,0,0,.65-2.2,3.66,3.66,0,0,0-.65-2.37,2.33,2.33,0,0,0-1.93-.79h-.9l-.14-1.11h1q3.81,0,3.81,4.27,0,4-3.81,4Z" transform="translate(-74.76 -97.63)"/><path class="cls-3" d="M221.43,179.76l2.4-8.32h1.7l2.4,8.32H226.7l-2-7.32h-.1l-2,7.32Zm1.11-2v-1.12h4.22v1.12Z" transform="translate(-74.76 -97.63)"/><path class="cls-3" d="M229,179.76v-8.32h1.17v8.32Zm1.09,0v-1.12H231a2.42,2.42,0,0,0,1.93-.73,3.2,3.2,0,0,0,.65-2.2,3.6,3.6,0,0,0-.65-2.37,2.33,2.33,0,0,0-1.93-.79h-.9l-.14-1.11h1q3.81,0,3.81,4.27,0,4-3.81,4Z" transform="translate(-74.76 -97.63)"/><path class="cls-3" d="M364.88,179.76v-8.32h1.18v8.32Zm1-2.58v-1.12h1.41a2.07,2.07,0,0,0,1.46-.47,1.87,1.87,0,0,0,.49-1.4,1.52,1.52,0,0,0-.49-1.23,2.27,2.27,0,0,0-1.46-.41h-1.39v-1.11h1.39a3.53,3.53,0,0,1,2.37.69,2.57,2.57,0,0,1,.81,2.06,2.92,2.92,0,0,1-.81,2.23,3.34,3.34,0,0,1-2.37.76Z" transform="translate(-74.76 -97.63)"/><path class="cls-3" d="M371.8,179.76v-8.32H373v8.32Zm1.09-3.17v-1.11h1.77a1.56,1.56,0,0,0,1.09-.37,1.4,1.4,0,0,0,.38-1,1.59,1.59,0,0,0-.38-1.13,1.48,1.48,0,0,0-1.09-.39h-1.75l-.14-1.11h1.89a2.82,2.82,0,0,1,2,.65,2.43,2.43,0,0,1,.71,1.86,2.61,2.61,0,0,1-.71,2,2.75,2.75,0,0,1-2,.69Zm3.37,3.17-1.86-3.92h1.29l2,3.92Z" transform="translate(-74.76 -97.63)"/><path class="cls-3" d="M381.53,179.87c-2,0-3.07-1.4-3.07-4.22s1-4.33,3.07-4.33,3.07,1.44,3.07,4.33S383.57,179.87,381.53,179.87Zm0-1.08c1.22,0,1.84-1,1.84-3.14s-.62-3.25-1.84-3.25-1.84,1.08-1.84,3.25S380.3,178.79,381.53,178.79Z" transform="translate(-74.76 -97.63)"/><path class="cls-3" d="M386,179.76v-8.32h1.17v8.32Zm1-2.58v-1.12h1.42a2,2,0,0,0,1.45-.47,1.87,1.87,0,0,0,.49-1.4,1.52,1.52,0,0,0-.49-1.23,2.24,2.24,0,0,0-1.45-.41H387v-1.11h1.4a3.56,3.56,0,0,1,2.37.69,2.6,2.6,0,0,1,.8,2.06,3,3,0,0,1-.8,2.23,3.37,3.37,0,0,1-2.37.76Z" transform="translate(-74.76 -97.63)"/><path class="cls-3" d="M393.06,172.55v-1.11h5.06v1.11Zm0,7.21v-1.12h5.06v1.12Zm1.94,0v-8.32h1.17v8.32Z" transform="translate(-74.76 -97.63)"/><path class="cls-3" d="M400,179.76v-8.32h1.17v8.32Zm0-7.21v-1.11h5.51v1.11Zm0,3.6V175h4.45v1.12Zm0,3.61v-1.12h5.51v1.12Z" transform="translate(-74.76 -97.63)"/><path class="cls-3" d="M407,179.76v-8.32h1.17v8.32Zm1.08,0v-1.12H409a2.42,2.42,0,0,0,1.93-.73,3.25,3.25,0,0,0,.65-2.2,3.66,3.66,0,0,0-.65-2.37,2.33,2.33,0,0,0-1.93-.79h-.9l-.14-1.11h1q3.81,0,3.81,4.27,0,4-3.81,4Z" transform="translate(-74.76 -97.63)"/><path class="cls-3" d="M413.43,179.76l2.4-8.32h1.7l2.4,8.32H418.7l-2-7.32h-.1l-2,7.32Zm1.11-2v-1.12h4.22v1.12Z" transform="translate(-74.76 -97.63)"/><path class="cls-3" d="M421,179.76v-8.32h1.17v8.32Zm1.09,0v-1.12H423a2.42,2.42,0,0,0,1.93-.73,3.2,3.2,0,0,0,.65-2.2,3.6,3.6,0,0,0-.65-2.37,2.33,2.33,0,0,0-1.93-.79h-.9l-.14-1.11h1q3.81,0,3.81,4.27,0,4-3.81,4Z" transform="translate(-74.76 -97.63)"/><path class="cls-3" d="M263.62,179.76l-2.35-8.32h1.26l1.94,7.32h.11l1.94-7.32h1.26l-2.35,8.32Z" transform="translate(-74.76 -97.63)"/><path class="cls-3" d="M268.3,179.76l2.41-8.32h1.7l2.4,8.32h-1.23l-2-7.32h-.11l-2,7.32Zm1.12-2v-1.12h4.22v1.12Z" transform="translate(-74.76 -97.63)"/><path class="cls-3" d="M276,179.76v-8.32h1.17v8.32Zm0,0v-1.12h5.51v1.12Z" transform="translate(-74.76 -97.63)"/><path class="cls-3" d="M285.62,179.87c-2.05,0-3.07-1.4-3.07-4.22s1-4.33,3.07-4.33,3.07,1.44,3.07,4.33S287.67,179.87,285.62,179.87Zm0-1.08c1.23,0,1.84-1,1.84-3.14s-.61-3.25-1.84-3.25-1.84,1.08-1.84,3.25S284.39,178.79,285.62,178.79Z" transform="translate(-74.76 -97.63)"/><path class="cls-3" d="M290,179.76v-8.32h1.17v8.32Zm1.08-3.17v-1.11h1.77a1.54,1.54,0,0,0,1.09-.37,1.36,1.36,0,0,0,.39-1,1.55,1.55,0,0,0-.39-1.13,1.47,1.47,0,0,0-1.09-.39h-1.74l-.14-1.11h1.88a2.84,2.84,0,0,1,2,.65,2.42,2.42,0,0,1,.7,1.86,2.6,2.6,0,0,1-.7,2,2.77,2.77,0,0,1-2,.69Zm3.38,3.17-1.86-3.92h1.29l2,3.92Z" transform="translate(-74.76 -97.63)"/><path class="cls-3" d="M482.62,179.76l-2.35-8.32h1.26l1.94,7.32h.11l1.94-7.32h1.26l-2.35,8.32Z" transform="translate(-74.76 -97.63)"/><path class="cls-3" d="M487.3,179.76l2.41-8.32h1.7l2.4,8.32h-1.23l-2-7.32h-.11l-2,7.32Zm1.12-2v-1.12h4.22v1.12Z" transform="translate(-74.76 -97.63)"/><path class="cls-3" d="M495,179.76v-8.32h1.17v8.32Zm0,0v-1.12h5.51v1.12Z" transform="translate(-74.76 -97.63)"/><path class="cls-3" d="M504.62,179.87c-2.05,0-3.07-1.4-3.07-4.22s1-4.33,3.07-4.33,3.07,1.44,3.07,4.33S506.67,179.87,504.62,179.87Zm0-1.08c1.23,0,1.84-1,1.84-3.14s-.61-3.25-1.84-3.25-1.84,1.08-1.84,3.25S503.39,178.79,504.62,178.79Z" transform="translate(-74.76 -97.63)"/><path class="cls-3" d="M509,179.76v-8.32h1.17v8.32Zm1.08-3.17v-1.11h1.77a1.54,1.54,0,0,0,1.09-.37,1.36,1.36,0,0,0,.39-1,1.55,1.55,0,0,0-.39-1.13,1.47,1.47,0,0,0-1.09-.39h-1.74l-.14-1.11h1.88a2.84,2.84,0,0,1,2,.65,2.42,2.42,0,0,1,.7,1.86,2.6,2.6,0,0,1-.7,2,2.77,2.77,0,0,1-2,.69Zm3.38,3.17-1.86-3.92h1.29l2,3.92Z" transform="translate(-74.76 -97.63)"/><path class="cls-3" d="M217.18,268.87a7.86,7.86,0,0,1-1.33-.11,5.71,5.71,0,0,1-1.15-.34l.16-1.19a7.56,7.56,0,0,0,1.24.42,4.79,4.79,0,0,0,1.17.14,2.12,2.12,0,0,0,1.22-.28,1,1,0,0,0,.4-.88,1.15,1.15,0,0,0-.77-1.09l-1.44-.65a3.69,3.69,0,0,1-1.3-.93,2.08,2.08,0,0,1-.45-1.36,2.14,2.14,0,0,1,.65-1.68,2.67,2.67,0,0,1,1.86-.6,4.21,4.21,0,0,1,1.48.24,3.89,3.89,0,0,1,1.24.81l-.82.83a3.79,3.79,0,0,0-1-.61,2.31,2.31,0,0,0-.93-.19,1.34,1.34,0,0,0-.94.29,1.07,1.07,0,0,0-.33.85,1,1,0,0,0,.22.66,1.85,1.85,0,0,0,.64.46l1.21.57a4.31,4.31,0,0,1,1.41,1,2.32,2.32,0,0,1-.25,3.1A3.7,3.7,0,0,1,217.18,268.87Z" transform="translate(-74.76 -97.63)"/><path class="cls-3" d="M221.92,268.75v-8.32h1.17v8.32Zm0-7.2v-1.12h5.5v1.12Zm0,3.6V264h4.45v1.12Zm0,3.6v-1.11h5.5v1.11Z" transform="translate(-74.76 -97.63)"/><path class="cls-3" d="M229,268.75v-8.32h1.17v8.32Zm1-2.57v-1.12h1.42a2,2,0,0,0,1.45-.47,1.87,1.87,0,0,0,.49-1.4,1.52,1.52,0,0,0-.49-1.23,2.24,2.24,0,0,0-1.45-.41H230v-1.12h1.4a3.57,3.57,0,0,1,2.37.7,2.6,2.6,0,0,1,.8,2.06,3,3,0,0,1-.8,2.23,3.37,3.37,0,0,1-2.37.76Z" transform="translate(-74.76 -97.63)"/><path class="cls-3" d="M235.3,268.75l2.41-8.32h1.7l2.4,8.32h-1.23l-2-7.31h-.11l-2,7.31Zm1.12-2v-1.12h4.22v1.12Z" transform="translate(-74.76 -97.63)"/><path class="cls-3" d="M242.89,268.75v-8.32h1.17v8.32Zm1.09-3.16v-1.11h1.77a1.54,1.54,0,0,0,1.09-.37,1.36,1.36,0,0,0,.39-1,1.55,1.55,0,0,0-.39-1.13,1.47,1.47,0,0,0-1.09-.39H244l-.14-1.12h1.88a2.81,2.81,0,0,1,2,.66,2.43,2.43,0,0,1,.71,1.86,2.61,2.61,0,0,1-.71,1.95,2.73,2.73,0,0,1-2,.69Zm3.38,3.16-1.87-3.91h1.29l2,3.91Z" transform="translate(-74.76 -97.63)"/><path class="cls-3" d="M249.37,268.75l2.4-8.32h1.7l2.4,8.32h-1.23l-2-7.31h-.1l-2,7.31Zm1.11-2v-1.12h4.22v1.12Z" transform="translate(-74.76 -97.63)"/><path class="cls-3" d="M257,268.75v-8.32h1.17v8.32Zm1.08,0v-1.11H259a2.42,2.42,0,0,0,1.93-.73,3.25,3.25,0,0,0,.65-2.2,3.66,3.66,0,0,0-.65-2.37,2.33,2.33,0,0,0-1.93-.79h-.9l-.14-1.12h1q3.81,0,3.81,4.28c0,2.7-1.27,4-3.81,4Z" transform="translate(-74.76 -97.63)"/><path class="cls-3" d="M266.68,268.87c-2.05,0-3.07-1.4-3.07-4.22s1-4.33,3.07-4.33,3.07,1.44,3.07,4.33S268.73,268.87,266.68,268.87Zm0-1.08c1.23,0,1.84-1,1.84-3.14s-.61-3.25-1.84-3.25-1.84,1.08-1.84,3.25S265.46,267.79,266.68,267.79Z" transform="translate(-74.76 -97.63)"/><path class="cls-3" d="M271,268.75v-8.32h1.17v8.32Zm1.09-3.16v-1.11h1.77a1.54,1.54,0,0,0,1.08-.37,1.36,1.36,0,0,0,.39-1,1.55,1.55,0,0,0-.39-1.13,1.46,1.46,0,0,0-1.08-.39h-1.75l-.14-1.12h1.89a2.82,2.82,0,0,1,2,.66,2.42,2.42,0,0,1,.7,1.86,2.6,2.6,0,0,1-.7,1.95,2.75,2.75,0,0,1-2,.69Zm3.37,3.16-1.86-3.91h1.29l2,3.91Z" transform="translate(-74.76 -97.63)"/><path class="cls-3" d="M350.14,268.87c-2.58,0-3.88-1.43-3.88-4.29a4.66,4.66,0,0,1,1-3.15,3.48,3.48,0,0,1,2.76-1.11,3.79,3.79,0,0,1,1.5.27,1.82,1.82,0,0,1,.93.78l-.86.86a1.89,1.89,0,0,0-.67-.62,1.94,1.94,0,0,0-.89-.21,2.26,2.26,0,0,0-1.81.81,3.52,3.52,0,0,0-.68,2.31q0,3.27,2.82,3.27a4.15,4.15,0,0,0,1.68-.35l.27,1A5.78,5.78,0,0,1,350.14,268.87Z" transform="translate(-74.76 -97.63)"/><path class="cls-3" d="M353.78,261.55v-1.12h5.06v1.12Zm0,7.2v-1.11h5.06v1.11Zm1.93,0v-8.32h1.18v8.32Z" transform="translate(-74.76 -97.63)"/><path class="cls-3" d="M360.76,268.75v-8.32h1.17v8.32Zm0-7.2v-1.12h5.51v1.12Zm0,3.6V264h4.45v1.12Zm0,3.6v-1.11h5.51v1.11Z" transform="translate(-74.76 -97.63)"/><path class="cls-3" d="M367.67,268.75v-8.32h1.18v8.32Zm1.09-3.16v-1.11h1.77a1.54,1.54,0,0,0,1.09-.37,1.36,1.36,0,0,0,.39-1,1.55,1.55,0,0,0-.39-1.13,1.47,1.47,0,0,0-1.09-.39h-1.74l-.14-1.12h1.88a2.81,2.81,0,0,1,2,.66,2.43,2.43,0,0,1,.71,1.86,2.61,2.61,0,0,1-.71,1.95,2.73,2.73,0,0,1-2,.69Zm3.38,3.16-1.86-3.91h1.28l2,3.91Z" transform="translate(-74.76 -97.63)"/><path class="cls-3" d="M374.71,268.75v-8.32h1.17v8.32Zm1.08-3.16v-1.11h1.77a1.54,1.54,0,0,0,1.09-.37,1.36,1.36,0,0,0,.39-1,1.55,1.55,0,0,0-.39-1.13,1.47,1.47,0,0,0-1.09-.39h-1.74l-.14-1.12h1.88a2.85,2.85,0,0,1,2,.66,2.42,2.42,0,0,1,.7,1.86,2.6,2.6,0,0,1-.7,1.95,2.77,2.77,0,0,1-2,.69Zm3.38,3.16-1.86-3.91h1.29l2,3.91Z" transform="translate(-74.76 -97.63)"/><path class="cls-3" d="M381.85,268.75v-8.32H383v8.32Zm0-7.2v-1.12h5.51v1.12Zm0,3.6V264h4.46v1.12Zm0,3.6v-1.11h5.51v1.11Z" transform="translate(-74.76 -97.63)"/><path class="cls-3" d="M395.8,268.75v-8.32H397v8.32Zm1.09,0v-1.11h.92a2.46,2.46,0,0,0,1.94-.73,3.25,3.25,0,0,0,.64-2.2,3.66,3.66,0,0,0-.64-2.37,2.37,2.37,0,0,0-1.94-.79h-.9l-.14-1.12h1q3.81,0,3.81,4.28c0,2.7-1.27,4-3.81,4Z" transform="translate(-74.76 -97.63)"/><path class="cls-3" d="M403,268.75v-8.32h1.17v8.32Zm0-7.2v-1.12h5.51v1.12Zm0,3.6V264h4.45v1.12Zm0,3.6v-1.11h5.51v1.11Z" transform="translate(-74.76 -97.63)"/><path class="cls-3" d="M416.89,268.75v-8.32h1.17v8.32Zm1.09,0v-1.11h.93a2.44,2.44,0,0,0,1.93-.73,3.25,3.25,0,0,0,.65-2.2,3.66,3.66,0,0,0-.65-2.37,2.34,2.34,0,0,0-1.93-.79H418l-.14-1.12h1q3.81,0,3.81,4.28c0,2.7-1.27,4-3.81,4Z" transform="translate(-74.76 -97.63)"/><path class="cls-3" d="M424,268.75v-8.32h1.17v8.32Zm0-7.2v-1.12h5.51v1.12Zm0,3.6V264h4.45v1.12Zm0,3.6v-1.11h5.51v1.11Z" transform="translate(-74.76 -97.63)"/><path class="cls-3" d="M434.52,268.87q-3.88,0-3.88-4.29a4.61,4.61,0,0,1,1-3.15,3.48,3.48,0,0,1,2.76-1.11,3.86,3.86,0,0,1,1.5.27,1.91,1.91,0,0,1,.93.78l-.87.86a1.81,1.81,0,0,0-.67-.62,1.87,1.87,0,0,0-.88-.21,2.23,2.23,0,0,0-1.81.81,3.46,3.46,0,0,0-.69,2.31q0,3.27,2.83,3.27a4.14,4.14,0,0,0,1.67-.35l.27,1A5.73,5.73,0,0,1,434.52,268.87Z" transform="translate(-74.76 -97.63)"/><path class="cls-3" d="M438.1,268.75v-8.32h1.18v8.32Zm0,0v-1.11h5.51v1.11Z" transform="translate(-74.76 -97.63)"/><path class="cls-3" d="M444.46,268.75l2.4-8.32h1.7l2.4,8.32h-1.23l-2-7.31h-.11l-2,7.31Zm1.11-2v-1.12h4.22v1.12Z" transform="translate(-74.76 -97.63)"/><path class="cls-3" d="M452.05,268.75v-8.32h1.17v8.32Zm1.09-3.16v-1.11h1.77a1.56,1.56,0,0,0,1.09-.37,1.4,1.4,0,0,0,.38-1,1.59,1.59,0,0,0-.38-1.13,1.48,1.48,0,0,0-1.09-.39h-1.75l-.14-1.12h1.89a2.82,2.82,0,0,1,2,.66,2.43,2.43,0,0,1,.71,1.86,2.61,2.61,0,0,1-.71,1.95,2.75,2.75,0,0,1-2,.69Zm3.37,3.16-1.86-3.91h1.29l2,3.91Z" transform="translate(-74.76 -97.63)"/><path class="cls-3" d="M458.52,268.75l2.41-8.32h1.69l2.41,8.32H463.8l-2-7.31h-.11l-2,7.31Zm1.12-2v-1.12h4.22v1.12Z" transform="translate(-74.76 -97.63)"/><path class="cls-3" d="M469.67,268.87c-2.58,0-3.88-1.43-3.88-4.29a4.66,4.66,0,0,1,1-3.15,3.51,3.51,0,0,1,2.76-1.11,3.79,3.79,0,0,1,1.5.27,1.89,1.89,0,0,1,.94.78l-.87.86a1.89,1.89,0,0,0-.67-.62,1.91,1.91,0,0,0-.89-.21,2.26,2.26,0,0,0-1.81.81,3.52,3.52,0,0,0-.68,2.31q0,3.27,2.82,3.27a4.15,4.15,0,0,0,1.68-.35l.27,1A5.78,5.78,0,0,1,469.67,268.87Z" transform="translate(-74.76 -97.63)"/><path class="cls-3" d="M473.31,261.55v-1.12h5.06v1.12Zm0,7.2v-1.11h5.06v1.11Zm1.94,0v-8.32h1.17v8.32Z" transform="translate(-74.76 -97.63)"/><path class="cls-3" d="M482.87,268.87c-2.05,0-3.07-1.4-3.07-4.22s1-4.33,3.07-4.33,3.07,1.44,3.07,4.33S484.92,268.87,482.87,268.87Zm0-1.08c1.23,0,1.84-1,1.84-3.14s-.61-3.25-1.84-3.25-1.84,1.08-1.84,3.25S481.64,267.79,482.87,267.79Zm-.77-8.29,1.29-1.47H485l-1.58,1.47Z" transform="translate(-74.76 -97.63)"/><path class="cls-3" d="M487.25,268.75v-8.32h1.13v8.32Zm3.82,0-2.57-6.32H488v-2h.77l2.58,6.33h.29v2Zm.35,0v-8.32h1.13v8.32Z" transform="translate(-74.76 -97.63)"/><line class="cls-4" x1="128.24" y1="83.37" x2="128.24" y2="105.37"/><line class="cls-4" x1="421.24" y1="83.37" x2="421.24" y2="105.37"/><line class="cls-4" x1="318.24" y1="83.37" x2="318.24" y2="105.37"/><line class="cls-4" x1="202.24" y1="83.37" x2="202.24" y2="105.37"/><line class="cls-4" x1="449.24" y1="135.37" x2="425.12" y2="157.8"/><line class="cls-4" x1="241.24" y1="136.37" x2="265.38" y2="158.77"/><line class="cls-4" x1="170.24" y1="135.37" x2="170.24" y2="157.37"/><path class="cls-5" d="M77.65,107.61a8.43,8.43,0,0,1-1.55-.14,5.65,5.65,0,0,1-1.34-.4l.18-1.38a8.55,8.55,0,0,0,1.45.49,6,6,0,0,0,1.37.17,2.38,2.38,0,0,0,1.42-.34,1.16,1.16,0,0,0,.47-1,1.35,1.35,0,0,0-.89-1.28L77.07,103a4.19,4.19,0,0,1-1.52-1.09,2.39,2.39,0,0,1-.53-1.58,2.55,2.55,0,0,1,.77-2A3.12,3.12,0,0,1,78,97.63a4.91,4.91,0,0,1,1.73.28,4.79,4.79,0,0,1,1.45.94l-1,1a4.42,4.42,0,0,0-1.13-.71A2.7,2.7,0,0,0,78,98.88a1.63,1.63,0,0,0-1.09.34,1.29,1.29,0,0,0-.38,1,1.12,1.12,0,0,0,.25.77,2.17,2.17,0,0,0,.74.53l1.43.67a5.13,5.13,0,0,1,1.64,1.14,2.42,2.42,0,0,1,.56,1.64,2.35,2.35,0,0,1-.86,2A4.24,4.24,0,0,1,77.65,107.61Z" transform="translate(-74.76 -97.63)"/><path class="cls-5" d="M83.18,107.47V97.76h1.37v9.71Zm0-8.41v-1.3H89.6v1.3Zm0,4.2V102h5.19v1.3Zm0,4.21v-1.3H89.6v1.3Z" transform="translate(-74.76 -97.63)"/><path class="cls-5" d="M91.38,107.47V97.76h1.37v9.71Zm0,0v-1.3h6.43v1.3Z" transform="translate(-74.76 -97.63)"/><path class="cls-5" d="M99.59,107.47V97.76H101v9.71Zm0-8.41v-1.3H106v1.3Zm0,4.2V102h5.19v1.3Zm0,4.21v-1.3H106v1.3Z" transform="translate(-74.76 -97.63)"/><path class="cls-5" d="M111.81,107.61q-4.53,0-4.53-5a5.39,5.39,0,0,1,1.14-3.67,4.07,4.07,0,0,1,3.22-1.3,4.45,4.45,0,0,1,1.75.31,2.27,2.27,0,0,1,1.09.91l-1,1a2.23,2.23,0,0,0-.78-.72,2.16,2.16,0,0,0-1-.26,2.64,2.64,0,0,0-2.12,1,4.13,4.13,0,0,0-.79,2.71c0,2.54,1.09,3.81,3.29,3.81a5.07,5.07,0,0,0,2-.41l.31,1.2A6.81,6.81,0,0,1,111.81,107.61Z" transform="translate(-74.76 -97.63)"/><path class="cls-5" d="M115.44,99.06v-1.3h7.11v1.3Zm2.88,8.41V97.76h1.36v9.71Z" transform="translate(-74.76 -97.63)"/><path class="cls-5" d="M127.2,107.61q-3.58,0-3.58-4.92c0-3.38,1.19-5.06,3.58-5.06s3.58,1.68,3.58,5.06S129.59,107.61,127.2,107.61Zm0-1.26c1.43,0,2.15-1.22,2.15-3.66s-.72-3.81-2.15-3.81-2.14,1.27-2.14,3.81S125.77,106.35,127.2,106.35Z" transform="translate(-74.76 -97.63)"/><path class="cls-5" d="M132.26,107.47V97.76h1.37v9.71Zm1.27-3.69v-1.3h2.07a1.78,1.78,0,0,0,1.27-.43,1.6,1.6,0,0,0,.45-1.21,1.82,1.82,0,0,0-.45-1.32,1.75,1.75,0,0,0-1.27-.46h-2l-.16-1.3h2.2a3.31,3.31,0,0,1,2.33.77,2.81,2.81,0,0,1,.83,2.17,3,3,0,0,1-.83,2.27,3.19,3.19,0,0,1-2.33.81Zm3.94,3.69-2.17-4.57h1.5l2.31,4.57Z" transform="translate(-74.76 -97.63)"/><path class="cls-5" d="M140.6,107.47V97.76H142v9.71Zm0-8.41v-1.3H147v1.3Zm0,4.2V102h5.2v1.3Zm0,4.21v-1.3H147v1.3Z" transform="translate(-74.76 -97.63)"/><path class="cls-5" d="M151.48,107.61a8.43,8.43,0,0,1-1.55-.14,5.65,5.65,0,0,1-1.34-.4l.18-1.38a8.55,8.55,0,0,0,1.45.49,6,6,0,0,0,1.37.17A2.4,2.4,0,0,0,153,106a1.16,1.16,0,0,0,.46-1,1.33,1.33,0,0,0-.89-1.28L150.9,103a4.11,4.11,0,0,1-1.52-1.09,2.39,2.39,0,0,1-.53-1.58,2.55,2.55,0,0,1,.77-2,3.11,3.11,0,0,1,2.16-.69,4.83,4.83,0,0,1,1.73.28,4.56,4.56,0,0,1,1.45.94l-1,1a4.42,4.42,0,0,0-1.13-.71,2.73,2.73,0,0,0-1.09-.23,1.63,1.63,0,0,0-1.09.34,1.26,1.26,0,0,0-.39,1,1.12,1.12,0,0,0,.26.77,2.07,2.07,0,0,0,.74.53l1.42.67a5.07,5.07,0,0,1,1.65,1.14,2.42,2.42,0,0,1,.56,1.64,2.35,2.35,0,0,1-.86,2A4.24,4.24,0,0,1,151.48,107.61Z" transform="translate(-74.76 -97.63)"/><path class="cls-5" d="M158.73,110.45l.55-4.72h1.58l-.82,4.72Z" transform="translate(-74.76 -97.63)"/><path class="cls-5" d="M173.41,107.47V97.76h1.37v9.71Zm1.21-3v-1.3h1.65a2.37,2.37,0,0,0,1.7-.55,2.18,2.18,0,0,0,.57-1.63,1.77,1.77,0,0,0-.57-1.43,2.55,2.55,0,0,0-1.7-.49h-1.63v-1.3h1.63a4.09,4.09,0,0,1,2.77.82A3,3,0,0,1,180,101a3.43,3.43,0,0,1-.94,2.6,3.9,3.9,0,0,1-2.77.88Z" transform="translate(-74.76 -97.63)"/><path class="cls-5" d="M181.48,107.47V97.76h1.37v9.71Zm1.27-3.69v-1.3h2.07a1.74,1.74,0,0,0,1.26-.43,1.57,1.57,0,0,0,.46-1.21,1.78,1.78,0,0,0-.46-1.32,1.71,1.71,0,0,0-1.26-.46h-2l-.17-1.3h2.21a3.31,3.31,0,0,1,2.33.77,2.81,2.81,0,0,1,.82,2.17,3,3,0,0,1-.82,2.27,3.19,3.19,0,0,1-2.33.81Zm3.94,3.69-2.17-4.57H186l2.31,4.57Z" transform="translate(-74.76 -97.63)"/><path class="cls-5" d="M192.83,107.61q-3.59,0-3.58-4.92c0-3.38,1.19-5.06,3.58-5.06s3.58,1.68,3.58,5.06S195.22,107.61,192.83,107.61Zm0-1.26c1.43,0,2.14-1.22,2.14-3.66s-.71-3.81-2.14-3.81-2.15,1.27-2.15,3.81S191.4,106.35,192.83,106.35Z" transform="translate(-74.76 -97.63)"/><path class="cls-5" d="M198,107.47V97.76h1.37v9.71Zm1.21-3v-1.3h1.65a2.37,2.37,0,0,0,1.7-.55,2.18,2.18,0,0,0,.57-1.63,1.77,1.77,0,0,0-.57-1.43,2.55,2.55,0,0,0-1.7-.49h-1.63v-1.3h1.63a4.09,4.09,0,0,1,2.77.82,3,3,0,0,1,.94,2.4,3.43,3.43,0,0,1-.94,2.6,3.9,3.9,0,0,1-2.77.88Z" transform="translate(-74.76 -97.63)"/><path class="cls-5" d="M206.28,99.06v-1.3h5.91v1.3Zm0,8.41v-1.3h5.91v1.3Zm2.26,0V97.76h1.37v9.71Z" transform="translate(-74.76 -97.63)"/><path class="cls-5" d="M214.43,107.47V97.76h1.37v9.71Zm0-8.41v-1.3h6.42v1.3Zm0,4.2V102h5.19v1.3Zm0,4.21v-1.3h6.42v1.3Z" transform="translate(-74.76 -97.63)"/><path class="cls-5" d="M222.5,107.47V97.76h1.36v9.71Zm1.27,0v-1.3h1.08a2.83,2.83,0,0,0,2.25-.85,3.81,3.81,0,0,0,.75-2.57,4.32,4.32,0,0,0-.75-2.77,2.74,2.74,0,0,0-2.25-.92h-1.06l-.16-1.3h1.22c3,0,4.44,1.67,4.44,5q0,4.73-4.44,4.72Z" transform="translate(-74.76 -97.63)"/><path class="cls-5" d="M230.05,107.47l2.8-9.71h2l2.81,9.71H236.2l-2.3-8.53h-.12l-2.3,8.53Zm1.3-2.36v-1.3h4.92v1.3Z" transform="translate(-74.76 -97.63)"/><path class="cls-5" d="M238.9,107.47V97.76h1.37v9.71Zm1.27,0v-1.3h1.08a2.87,2.87,0,0,0,2.26-.85,3.81,3.81,0,0,0,.75-2.57,4.32,4.32,0,0,0-.75-2.77,2.78,2.78,0,0,0-2.26-.92H240.2l-.16-1.3h1.21c3,0,4.45,1.67,4.45,5q0,4.73-4.45,4.72Z" transform="translate(-74.76 -97.63)"/><path class="cls-5" d="M257.87,104.23l-3.35-6.47H256l2.36,4.86h.12l2.37-4.86h1.5L259,104.23Zm-.1,3.24v-4.78h1.37v4.78Z" transform="translate(-74.76 -97.63)"/><path class="cls-5" d="M273.8,107.47l-2.74-9.71h1.47l2.27,8.55h.12l2.27-8.55h1.46l-2.73,9.71Z" transform="translate(-74.76 -97.63)"/><path class="cls-5" d="M279.27,107.47l2.8-9.71h2l2.81,9.71h-1.44l-2.3-8.53H283l-2.3,8.53Zm1.3-2.36v-1.3h4.92v1.3Z" transform="translate(-74.76 -97.63)"/><path class="cls-5" d="M288.26,107.47V97.76h1.36v9.71Zm0,0v-1.3h6.42v1.3Z" transform="translate(-74.76 -97.63)"/><path class="cls-5" d="M299.47,107.61q-3.59,0-3.58-4.92c0-3.38,1.19-5.06,3.58-5.06s3.58,1.68,3.58,5.06S301.86,107.61,299.47,107.61Zm0-1.26c1.43,0,2.14-1.22,2.14-3.66s-.71-3.81-2.14-3.81-2.15,1.27-2.15,3.81S298,106.35,299.47,106.35Z" transform="translate(-74.76 -97.63)"/><path class="cls-5" d="M304.53,107.47V97.76h1.36v9.71Zm1.27-3.69v-1.3h2.06a1.75,1.75,0,0,0,1.27-.43,1.6,1.6,0,0,0,.46-1.21,1.82,1.82,0,0,0-.46-1.32,1.72,1.72,0,0,0-1.27-.46h-2l-.17-1.3h2.2a3.32,3.32,0,0,1,2.34.77,2.81,2.81,0,0,1,.82,2.17,3,3,0,0,1-.82,2.27,3.2,3.2,0,0,1-2.34.81Zm3.94,3.69-2.18-4.57h1.51l2.31,4.57Z" transform="translate(-74.76 -97.63)"/><path class="cls-5" d="M312.87,107.47V97.76h1.36v9.71Zm0-8.41v-1.3h6.42v1.3Zm0,4.2V102h5.19v1.3Zm0,4.21v-1.3h6.42v1.3Z" transform="translate(-74.76 -97.63)"/><path class="cls-5" d="M323.74,107.61a8.32,8.32,0,0,1-1.54-.14,5.51,5.51,0,0,1-1.34-.4l.18-1.38a8.26,8.26,0,0,0,1.45.49,6,6,0,0,0,1.36.17,2.38,2.38,0,0,0,1.42-.34,1.16,1.16,0,0,0,.47-1,1.35,1.35,0,0,0-.89-1.28l-1.68-.76a4.11,4.11,0,0,1-1.52-1.09,2.34,2.34,0,0,1-.53-1.58,2.55,2.55,0,0,1,.76-2,3.14,3.14,0,0,1,2.17-.69,4.87,4.87,0,0,1,1.73.28,4.79,4.79,0,0,1,1.45.94l-1,1a4.38,4.38,0,0,0-1.12-.71,2.73,2.73,0,0,0-1.09-.23,1.62,1.62,0,0,0-1.09.34,1.26,1.26,0,0,0-.39,1,1.17,1.17,0,0,0,.25.77,2.12,2.12,0,0,0,.75.53l1.42.67a5,5,0,0,1,1.64,1.14,2.37,2.37,0,0,1,.56,1.64,2.32,2.32,0,0,1-.86,2A4.22,4.22,0,0,1,323.74,107.61Z" transform="translate(-74.76 -97.63)"/></svg>