<svg id="Capa_1" data-name="Capa 1" xmlns="http://www.w3.org/2000/svg" viewBox="0 0 229 113.73"><defs><style>.cls-1{font-size:14px;fill:#220eff;font-family:Consolas;}.cls-2{fill:#000;}.cls-3,.cls-4,.cls-5{fill:none;}.cls-3{stroke:#39b54a;}.cls-3,.cls-4,.cls-5,.cls-6{stroke-miterlimit:10;stroke-width:2px;}.cls-4{stroke:#ed1c24;}.cls-5{stroke:#662d91;}.cls-6{fill:#22b573;stroke:#009245;}.cls-7{font-size:12px;fill:#39b54a;}.cls-10,.cls-14,.cls-7{font-family:MyriadPro-Regular, Myriad Pro;}.cls-8{letter-spacing:0em;}.cls-9{letter-spacing:-0.01em;}.cls-10,.cls-14{font-size:11px;}.cls-10{fill:blue;}.cls-11{letter-spacing:0em;}.cls-12{letter-spacing:0.02em;}.cls-13{letter-spacing:-0.01em;}.cls-14{fill:#662d91;}.cls-15{letter-spacing:-0.01em;}.cls-16{letter-spacing:0em;}.cls-17{letter-spacing:-0.01em;}.cls-18{letter-spacing:0em;}.cls-19{letter-spacing:-0.01em;}</style></defs><text class="cls-1" transform="translate(17 60.53)">&lt;p&gt;<tspan class="cls-2" x="23.09" y="0">Esto es un párrafo.</tspan><tspan x="169.34" y="0">&lt;/p&gt;</tspan></text><ellipse class="cls-3" cx="114.5" cy="59.13" rx="113.5" ry="22"/><line class="cls-4" x1="17" y1="65.13" x2="38" y2="65.13"/><line class="cls-5" x1="42" y1="65.13" x2="183" y2="65.13"/><line class="cls-4" x1="189" y1="65.13" x2="216" y2="65.13"/><line class="cls-5" x1="113" y1="66.13" x2="113" y2="87.13"/><line class="cls-6" x1="113" y1="37.13" x2="113" y2="23.13"/><line class="cls-4" x1="27" y1="65.13" x2="27" y2="85.13"/><line class="cls-4" x1="203" y1="66.13" x2="203" y2="86.13"/><text class="cls-7" transform="translate(89.35 14.19)">Eleme<tspan class="cls-8" x="30.77" y="0">n</tspan><tspan class="cls-9" x="37.38" y="0">t</tspan><tspan x="41.28" y="0">o</tspan></text><text class="cls-10" transform="translate(6.57 96.07)"><tspan class="cls-11">E</tspan><tspan x="5.38" y="0">tiqueta </tspan><tspan x="-6.45" y="13.2">de ape</tspan><tspan class="cls-12" x="24.67" y="13.2">r</tspan><tspan x="28.53" y="13.2">tu</tspan><tspan class="cls-13" x="38.24" y="13.2">r</tspan><tspan x="41.78" y="13.2">a</tspan></text><text class="cls-14" transform="translate(89.12 98.25)"><tspan class="cls-15">C</tspan><tspan x="6.26" y="0">o</tspan><tspan class="cls-16" x="12.3" y="0">n</tspan><tspan class="cls-17" x="18.36" y="0">t</tspan><tspan x="21.93" y="0">enido</tspan></text><text class="cls-10" transform="translate(183.38 97.78)"><tspan class="cls-11">E</tspan><tspan x="5.38" y="0">tiqueta</tspan><tspan x="-0.7" y="13.2">de cie</tspan><tspan class="cls-18" x="26.36" y="13.2">r</tspan><tspan class="cls-19" x="30" y="13.2">r</tspan><tspan x="33.49" y="13.2">e</tspan></text><text x="-11" y="-33.87"/></svg>